<mxfile host="app.diagrams.net" modified="2024-04-23T02:18:33.846Z" agent="Mozilla/5.0 (Windows NT 10.0; Win64; x64) AppleWebKit/537.36 (KHTML, like Gecko) Chrome/124.0.0.0 Safari/537.36" etag="datAf_kU-HFku6Y6r487" version="24.2.8" type="device">
  <diagram name="Página-1" id="7qiTwSUw3i8CorlzEtf_">
    <mxGraphModel dx="1733" dy="466" grid="1" gridSize="10" guides="1" tooltips="1" connect="1" arrows="1" fold="1" page="1" pageScale="1" pageWidth="583" pageHeight="827" math="0" shadow="0">
      <root>
        <mxCell id="0" />
        <mxCell id="1" parent="0" />
        <mxCell id="DBJ_dtxgOlgjZF1K9IKU-1" value="Aplicación web / Controlador de salidas&amp;nbsp;" style="rounded=0;whiteSpace=wrap;html=1;" parent="1" vertex="1">
          <mxGeometry x="-70" y="279" width="120" height="60" as="geometry" />
        </mxCell>
        <mxCell id="DBJ_dtxgOlgjZF1K9IKU-2" value="Aplicación web / Controlador de entradas" style="rounded=0;whiteSpace=wrap;html=1;" parent="1" vertex="1">
          <mxGeometry x="-70" y="363" width="120" height="60" as="geometry" />
        </mxCell>
        <mxCell id="DBJ_dtxgOlgjZF1K9IKU-3" value="db sql&lt;div&gt;mantenimiento&lt;/div&gt;" style="shape=cylinder3;whiteSpace=wrap;html=1;boundedLbl=1;backgroundOutline=1;size=15;" parent="1" vertex="1">
          <mxGeometry x="176" y="308" width="110" height="86" as="geometry" />
        </mxCell>
        <mxCell id="DBJ_dtxgOlgjZF1K9IKU-5" value="Vista dashboard, forms de registro etc" style="rounded=0;whiteSpace=wrap;html=1;" parent="1" vertex="1">
          <mxGeometry x="-320" y="321" width="120" height="60" as="geometry" />
        </mxCell>
        <mxCell id="DBJ_dtxgOlgjZF1K9IKU-7" value="Vista" style="text;html=1;align=center;verticalAlign=middle;whiteSpace=wrap;rounded=0;" parent="1" vertex="1">
          <mxGeometry x="-290" y="230" width="60" height="30" as="geometry" />
        </mxCell>
        <mxCell id="DBJ_dtxgOlgjZF1K9IKU-9" value="Controlador" style="text;html=1;align=center;verticalAlign=middle;whiteSpace=wrap;rounded=0;" parent="1" vertex="1">
          <mxGeometry x="-41" y="230" width="60" height="30" as="geometry" />
        </mxCell>
        <mxCell id="DBJ_dtxgOlgjZF1K9IKU-11" value="Modelo" style="text;html=1;align=center;verticalAlign=middle;whiteSpace=wrap;rounded=0;" parent="1" vertex="1">
          <mxGeometry x="201" y="230" width="60" height="30" as="geometry" />
        </mxCell>
        <mxCell id="DBJ_dtxgOlgjZF1K9IKU-12" value="" style="endArrow=classic;startArrow=classic;html=1;rounded=0;exitX=1;exitY=0.5;exitDx=0;exitDy=0;entryX=0;entryY=0.5;entryDx=0;entryDy=0;" parent="1" source="DBJ_dtxgOlgjZF1K9IKU-5" target="DBJ_dtxgOlgjZF1K9IKU-1" edge="1">
          <mxGeometry width="50" height="50" relative="1" as="geometry">
            <mxPoint x="-49" y="358" as="sourcePoint" />
            <mxPoint y="310" as="targetPoint" />
          </mxGeometry>
        </mxCell>
        <mxCell id="DBJ_dtxgOlgjZF1K9IKU-13" value="" style="endArrow=classic;startArrow=classic;html=1;rounded=0;exitX=1;exitY=0.5;exitDx=0;exitDy=0;entryX=0;entryY=0.5;entryDx=0;entryDy=0;" parent="1" source="DBJ_dtxgOlgjZF1K9IKU-5" target="DBJ_dtxgOlgjZF1K9IKU-2" edge="1">
          <mxGeometry width="50" height="50" relative="1" as="geometry">
            <mxPoint x="-39" y="361" as="sourcePoint" />
            <mxPoint x="10" y="320" as="targetPoint" />
          </mxGeometry>
        </mxCell>
        <mxCell id="DBJ_dtxgOlgjZF1K9IKU-14" value="" style="endArrow=classic;startArrow=classic;html=1;rounded=0;exitX=1;exitY=0.5;exitDx=0;exitDy=0;entryX=0;entryY=0.5;entryDx=0;entryDy=0;entryPerimeter=0;" parent="1" source="DBJ_dtxgOlgjZF1K9IKU-2" target="DBJ_dtxgOlgjZF1K9IKU-3" edge="1">
          <mxGeometry width="50" height="50" relative="1" as="geometry">
            <mxPoint x="190" y="400" as="sourcePoint" />
            <mxPoint x="240" y="443" as="targetPoint" />
          </mxGeometry>
        </mxCell>
        <mxCell id="DBJ_dtxgOlgjZF1K9IKU-15" value="" style="endArrow=classic;startArrow=classic;html=1;rounded=0;exitX=1;exitY=0.5;exitDx=0;exitDy=0;entryX=0;entryY=0.5;entryDx=0;entryDy=0;entryPerimeter=0;" parent="1" source="DBJ_dtxgOlgjZF1K9IKU-1" target="DBJ_dtxgOlgjZF1K9IKU-3" edge="1">
          <mxGeometry width="50" height="50" relative="1" as="geometry">
            <mxPoint x="131" y="404" as="sourcePoint" />
            <mxPoint x="186" y="361" as="targetPoint" />
          </mxGeometry>
        </mxCell>
        <mxCell id="DBJ_dtxgOlgjZF1K9IKU-17" value="Lectura / escritura" style="text;html=1;align=center;verticalAlign=middle;whiteSpace=wrap;rounded=0;" parent="1" vertex="1">
          <mxGeometry x="80" y="383" width="60" height="30" as="geometry" />
        </mxCell>
        <mxCell id="DBJ_dtxgOlgjZF1K9IKU-18" value="Lectura" style="text;html=1;align=center;verticalAlign=middle;whiteSpace=wrap;rounded=0;" parent="1" vertex="1">
          <mxGeometry x="80" y="294" width="60" height="30" as="geometry" />
        </mxCell>
        <mxCell id="DBJ_dtxgOlgjZF1K9IKU-19" value="Solicitudes https" style="text;html=1;align=center;verticalAlign=middle;whiteSpace=wrap;rounded=0;" parent="1" vertex="1">
          <mxGeometry x="-170" y="336" width="100" height="30" as="geometry" />
        </mxCell>
        <mxCell id="DBJ_dtxgOlgjZF1K9IKU-21" value="get items, img, forms" style="text;html=1;align=center;verticalAlign=middle;whiteSpace=wrap;rounded=0;" parent="1" vertex="1">
          <mxGeometry x="-170" y="291" width="60" height="30" as="geometry" />
        </mxCell>
        <mxCell id="DBJ_dtxgOlgjZF1K9IKU-22" value="Save position, form data, etc" style="text;html=1;align=center;verticalAlign=middle;whiteSpace=wrap;rounded=0;" parent="1" vertex="1">
          <mxGeometry x="-180" y="381" width="60" height="61" as="geometry" />
        </mxCell>
        <mxCell id="DBJ_dtxgOlgjZF1K9IKU-23" value="&lt;h1 style=&quot;margin-top: 0px;&quot;&gt;Pasos para instalar localmente la aplicación&lt;/h1&gt;&lt;div&gt;1) Montar una base de datos local llamada &quot;mantenimiento&quot;&lt;/div&gt;&lt;p&gt;2) Montar la estructura de la&amp;nbsp; base de datos, se recomienda sql server management studio para su uso (2020)&lt;/p&gt;&lt;p&gt;&lt;span style=&quot;white-space: pre;&quot;&gt;&#x9;&lt;/span&gt;2.1) Ejecutar los querys para crear las tablas en orden numérico&lt;br&gt;&lt;/p&gt;&lt;p&gt;&lt;span style=&quot;white-space: pre;&quot;&gt;&#x9;&lt;/span&gt;2.2) Ejecutar las cargas iniciales en orden numérico&lt;br&gt;&lt;/p&gt;&lt;p&gt;&lt;br&gt;&lt;/p&gt;&lt;p&gt;3) Moficiar la cadena de conexión en la base de datos, esta cadena se encuentra en la clase &quot;mantenimientoContext.cs&quot; dentro de la carpeta &quot;conn&quot; (&lt;span style=&quot;background-color: initial;&quot;&gt;en caso de ser necesario)&lt;/span&gt;&lt;/p&gt;&lt;p&gt;&lt;span style=&quot;background-color: initial;&quot;&gt;&lt;br&gt;&lt;/span&gt;&lt;/p&gt;&lt;p&gt;4) Ejecutar la aplicación web de persistencia, puede ser un IIS express desde visual studio 2019 locales&lt;/p&gt;&lt;p&gt;&lt;span style=&quot;color: rgba(0, 0, 0, 0); font-family: monospace; font-size: 0px; text-wrap: nowrap;&quot;&gt;%3CmxGraphModel%3E%3Croot%3E%3CmxCell%20id%3D%220%22%2F%3E%3CmxCell%20id%3D%221%22%20parent%3D%220%22%2F%3E%3CmxCell%20id%3D%222%22%20value%3D%22%22%20style%3D%22shape%3Dimage%3BverticalLabelPosition%3Dbottom%3BlabelBackgroundColor%3Ddefault%3BverticalAlign%3Dtop%3Baspect%3Dfixed%3BimageAspect%3D0%3Bimage%3Ddata%3Aimage%2Fpng%2CiVBORw0KGgoAAAANSUhEUgAAAYEAAAF1CAYAAAAOWlYrAAAgAElEQVR4Ae29aXAcR5Ym2FU1U10z1jVTM9Y9023d07qAxA0QAEEQBA8QJMEb4H3fJ3gfCR7iAd4SJVI8pdQtsairROouolQSJapE3SrVwWp09dbucqfXrMaWbW2mbtjuj1nbH9%2Fa8wiP9PCIyAxkZiQiEY9mwURmRPjx%2FPPve%2F48wv1PqqqGYMyYNtAnH2wDxgBjgDEQHQwQ9%2F8JNTj9UVwc44NtwBhgDDAGIoQBFoEINTaLPDs5jAHGgI4BFgEWAfb6GAOMgQhjgEUgwo2vewT8nb1ExkD0MBCICEybNg2HDx%2FG6dOnMz7ofkqHQRk9UHKbc5szBvKHgUBEYNmy5bh69So%2B%2BuijjA%2B6n9JhMOQPDGxrtjVjIHoYCEQEVqxYgTfffBOffvppxgfdT%2BkwKKMHSm5zbnPGQP4wMChEIN7Th74%2B5ejp6pd40P29iY5%2B3eMFUqMsPYi7zTXEe9DX14tEezYN3IFEbx964jEUU3q9CbS75VXAv6W0oc965SINrzb2%2F3v%2F20qU24FfJR2f9ZdlbE%2F0os%2BRXib4y7wMsiyD6TN3ds2kLXJ7T2Ai8Mgjj2DJkiVoahrR74Puo%2FvTjwQMYOogjyf6R4zU8XIlAp5Ab0%2BgNyeErXTGMIhAGMrQT2L0bKNU6WRUz362FeWhEbYhZoaDI4Q%2FVRldzuWCrLItQ0b2dqlLYOlk1LYxkG0D54082CEwETh58iSmT5%2BekXdN99H9aUWAiDVrzzqG%2FIhAR4489n4SS9AgyrADBdahg6pvRvXsT1vRtdookfLso1FlF3r6zNFfP%2BuXtQjkoAyhb%2BuM2pa8cWoXj1F%2FP9tpIG1U2CLgs3OIjpAiXGQXAWpYrTMKsbE3tp6m9NLsaRnDNv1au7cnicL4NMJaWv4%2BAWXk3SXCRTI8Jsolyi%2FDZfZ6FNvO9WnhpdRlo%2FxkPuJT8WLtdVbrkzpN6gy6DTOpl54GpZtpmfzXs8%2Fhyfvu3EREiv3s9%2FkXAVtZexOIu4SDvO2QKszgrwzS7rY8bCNg2f5GeobIpe8nol6afUQeStq2PPU%2B7Gh%2FQ1Rt9iKOUPKwp2c%2FJ9uHrin00UDeRSBWXA46pBHdPn2PBJSG9WoIoyFV4jPJVmlsCVyjLOlFwJFmewIJitG7EJjj2mI9f%2FO7AloBTAXcbjZy%2B80AdJJwjbxVYtfzJmLsUeYo9PM%2ByubiRYl81fJb3iTZKH2a9vYwREGdS%2FFTLz2NbMvkNv9ilCM1ttzaye03SssLw4bHmX4k4MCNsLudvFLbITciQA5Bsi7umOrtVXEnBTqFLR04M9KVzle6ejnaSumzWbUtlUvhEre2DftvgYjAokWL0NW1C2PGtNjIvvTeIZhcsRXrGi5hZtV%2B1Bbbz0tj9UcExD2KN5sEHwHahdDJq9Y8ezthuNxju97wYCT4ZJnlZ9q0HPkbYLaV25Zfqo5pPydIwAZIl7I6OpM9DXuH8FE2R3ou9jOJ37BZ%2BjTtNjRFoJ%2F1sqeRfZnsdvGPLYmLdJ9UXi9M%2BRMBtzrqtnO7xk6m3uWke1OV0cCRE4Oyv0nnxKX9ffVTrey2PqKdEyNntV5pyu4Lw7IeqlCZv6kOj89Ru7edtf6Yh%2FQCEYGKikoMqRqG8pIaSwSEAJRvQ3zkT9E97ib2t36IBXUnUFM00rpGGqbfIiANRY2pDunEd63RxLV20KQlDBVwnmkmO4FF6J7XqvmrYDUBIPKTncY%2FKOz1oPvUfMx0qEwaaA0vSQntWOd9lE1PT9RZSUsJw6kiYCM8rb56PfTvfupluycHZXKIgEgzPbYkplN%2Fkp1TtXcaEiNMqxiV%2FUGOlKWAprVDKqz5KIPLSNiot4pDF0z5tKXapgKzfuvlmb5Hn%2FC8Xq2HtBX95oYDeT78n4GIwKjyuVjT%2BDSWDT2HxpIpUAXg0PhPcXjCZ%2BJYOvQMhhSNyZ0IWJ3B7FA%2BG1MFlyvBqB3MM02jsW1peV6rgsmlU2ikmJpAkiCz5e0idiIdKpNF8lQONVykP3bqo2y29Mz7U3aK9Gnq9dC%2Fu7aRVg7bPZ7tIG2XvkzBioDhsduEUSFyo75pvHCPOjrJMlPCMrDiXUYX%2FFt1SIN3j7I72tlqY629PO8329fPeatPpMKwWg8zbeqr6r1WnSW2wv8ZiAi0Va3B9qY3cf%2BYD7Bh%2BGWsqEuIEcCBll9gw7AXsHnEK8GJgDpZ7EWmKqk7vBeXhlZB5JWm2fg28vG61pa%2FBmhKx%2Bu%2BNACz5S2u9aiLBK2tHAZYBWnI87YwjgJ6Zf7CQY5py56%2Bvno99O8OcqC6WgRhlNN2Tw7KpKfv2UYuNvUj4rbyOtqZ2jGNCHjUkdK1YtYe1%2Fgpny8hMvuSlZ%2Bsh9p%2F%2FGBK3uewpYnnOD0VqIhZunqlO69hp19tS%2FfKEYksd4F9BiICE6vWYkXtY1hc8wi2jngVB8d9jD2jf45Z1QfRdN9cLB96PjciQI2rNYAR2kgCRHQCFTAmCK2QjUMEDJJKNqzRAdWnGBxpKpNMemd2XOvIPz0p%2Buukhjep1istWeqdQ3xXRwY%2Bymbr4EkCVu0lJoN75Lsb6dN0s2G%2F6uVoUzM2ruOgH2USImC73yPNXnVS1BROP6SQkkx8iIAkYEvApUeriIC8xlaPDiQsO6Qqbz%2FKYBMs475k%2B7m0v1e5XGwpsNHrfAHOtZ8p9XKcV%2FpsNm1LfJOsWyr7hfdcYCKwsu4JrKl%2FFntGvy8I%2F%2BDYm1hWewFjipaDwkAUEso%2BHCQJWo1BJwVAkqchDMlr9EbTSUd6Pcbjjz2IC3K0p2uASqaZjOc605JPPshrdZJw6RQ6OfshERfiSysCMmYs4%2FZEIDavyE%2FZjGtsczFWp3arc%2Fo0dRvq3%2F3Uy3mPJO3MypR8qslOqumwJTGY%2FpOwnMSR%2FXp%2FBGwrozk3JsqnOUpkGwPbxqfeH%2Bx5S%2FLyVwbD7vbHlJMOFaXl0v4mvn3ZMkXfSFcv%2B3nV1u4YTl8esomdF9xtJ20Yzs%2FARGDnyLexb8wNrKh7FDMrD2LriCs4MO4jbBvxhggNSRGYPXEVHnnkDN566y3r6OnpwZUrV9K%2FLOaTHAuxYbjM4ewwgbZLytFAYdjDEIHcLMHiamubkzKwNiGR8CegA1tOVzsq3BmICAyLTcacqqOYXtGF2qIxKC8egvEVK4UQHBr%2FCeiQIjC6bjra2zuwePES2zFnzlyx3ES6CvD5cAOM26d%2F7SO8Vc1zLyQbBisChsceBuJ1G2EVUjupZQ1EBEpi5SiPDUFZcTWKi0pQVFSM0uJKSwhIAA6M%2FRjzao6huqgJZWVlKC%2Bv0I5ylJSUOp4cUgvPf%2FePYNhebK%2BgMRCUCAhxNENcQdchaukHIgJeRiQhaC1fhnnVx9FavhyVsQYUF5UKkfC6h39n4mIMMAYYA8FhIK8iQA1JQlAeqxWfxcUl7OkrsTkGenBAZ9uybRkD7hjIuwhwQ7g3BNuF7cIYYAwMBAZYBNgT59EYY4AxEGEMsAhEuPEHwuvgPNnbZQyECwMsAiwC7AUyBhgDEcYAi0CEG589snB5ZNwe3B4DgYGCE4GmpibxJvGmTZuQ6bFmzVq0tbWx98MCyBhgDEQeAwUnAh0dHbh8%2BTLef%2F%2F9jI%2FXXnsNGzduinzjD4TXwXmyt8sYCBcGCk4EZs6cJdYV%2BvTTT5HpQWsTbdu2LXoiIFcJ9VyozCc4c5UOe6HRwyC3eejaPFAR6OzsBK0BlEvlj4QISJJVlwXOReeR6YZVBGT5cl3vXNiO08hpP84lJ3BaPp03DwwHJgIkAN9%2B%2By0WLFiQU%2FCQCJw6dQorVqzExImTMG1aO2bPnoN58%2BZj9uy5mD69Xfw%2BYUIb3I65c%2BfhyJEjoR4JWEvYRowMo1pvJrHsSIztl539AhEBEoB%2F%2BZd%2FEWuWByECx44dE0RfWlqGouo63DV%2BLu6evx13T16E%2B4YMA%2F1eVlYB2uu4oqLKdowY0YwtW7amEQFj7XRac52207MWr5IetPRYxTr86nriyrrkco1%2BeY9QYTVd%2B7Vy275kXsk139VVE%2FXz8j51D4SeuHvaxo5JlK5cS10tTz%2FqadVfpmOAMJuy6feS7VPV275GfXadgEmE7RdlDORcBKQA%2FOu%2F%2FmsgIjBt2nRB4lUjWnDX0r2ovnQLQ6%2F8H6h89tcY%2FvI%2FoO7y3%2BHujQ%2FjrpphYhVSEoPy8krrGD68CZs2bfYtAr20i5FF6LTrVi961e%2F0t7X0r518k%2FdJoUiSbvKcJHvjmlRk6HaO0jGEIH3aqUSgX%2FV0EYFsy%2BZ2vyECXjZVd0BjEosyiXHds8N%2FTkVAFwAiqFyPBCorq1A9egJKt5xC7ROfofLM%2B6g%2FfQ33zN2CogMvoPj8xyh74E3UHHgOd9c1o7S03BIAEoP%2BioAkeCtUoXioFnF5hm2SxOwgaikctEmGEJWkV23lpaabinhFWsm8ZJmNbfMUz9%2BRhvMeK%2B9U9dTT0b%2BrO4v5LZu6y5lrvaXYyT2YDfFMjoSy6whMJGy%2FqGIgZyLgJgBBiEBxrBTls9ej6ulf4r6jV1F0%2F%2FOouP8ZlFXXoWZZF4YcfxX3rjiA4oufonjzacdooL8iYJGMC9FZJKuQlkqiBrmrZJUk3VTpWmn4SFfkoRGtZ9qOOvgrj6OeWjpWefURkjVK8pePlY5bvZXf5BaFVHc1ZBTVTsz1ZgHLBgM5EQEvAQhCBO5pHIuirsdF%2BKfi0Ztofv2%2FY9Sb%2FyeaL32DUVf%2BV4z%2B6f%2BFuud%2FjcpnfoWak2%2FgrhFtttFAoCJgefWSnHTy07%2BrXm3qkYBFkJ57mvpIWyNv%2BzyC2ZEc1ygblksi1q7JSdk8RgJW2jJvMbeSDBGxCDABZkOAfG8MWYsACQA9BaR6verfuQ4H3TtuNu4%2B8BKKO0%2BgZE4nig69jJLle1HZPA7l8zej6PArKF66GyULtuLeo6%2FjnlkbxUSxnBcIUgQswpKhHossZSjDB1GrZKgSvkNgjM7fnkgg7ph09iB0qzxScPyVJ91IwDqveeb9KpuPejtHONKuTIRMZoyBTDGQtQjQewBE9F5HXV19Th8RvW%2Factxz%2BgPcs%2B0i7p63FXd3PYmieVtE3L9k6hLcc%2F%2BPcffCOO5dtg%2F3nvsF7lt5ACUltH2lMTmcFxFwCYsYBNZP0jXTST1B6px0dpKlSfpBiUBx0jNXHYA%2BS8SCqDdPDGfa6fk%2BFgwVA1mLgJpYPv6%2Br20eys5%2BiIZX%2FoD6F%2F4ew1%2F776h6%2FAvcd%2FwtVF74CCOu%2FG8Y9tLvUf%2Fi36P2ma9xz9zNeRsJqLFq4zFMnfz07%2B7hILKjNels865dyFaOOop9pB2YCFCnyrJs5oss7vW220MIjVVv7tD56Hecx%2BDFWcGJwD11zSjblcDQxz7CvR1rUbXzPGrPvoe7lh9A%2BeGX0fDQGyiatgyV3S%2Bg7tx7Yk5AfUzU30hg8DY4d2ZuW8YAY0DFQMGJQFGsFEXtK1F09iMUxZ9AyepDqDj6Ku6asR73dD2F%2BzadRmzFPpRf%2FBhl645iWsdM7N69B11du8Rx%2BPARPP7442neE2CQqCDhvxkPjIHBi4GCEwECY1F5Ne6btwWVT%2F8STVf%2Bd1Q99imKj7%2BJsqd%2Fhapnf426Z7%2FBvetOoL65BUuWLMWePXuwe%2FducezduxfxeBy0GikDe%2FACm9uW25Yx4A8DBSkConHLq3DfhLm4Z8%2BzKH%2F6V6h%2F%2BQ%2Boevob3NX1JO6ZshTFVbXiHQF6uaympsZ2VFfXoLy8nEXAjMNzZ%2FHXWdhObKfBiIHCFQEisNJyFFXXo3hoM0oaRiE2tNn4XlbBBM8EzxhgDDAGfGCgsEXARwUHo3JzndgjZQwwBnKFARYBFhL2lhgDjIEIY4BFIMKNnytPgtNhr5QxULgYYBFgEWAvkDHAGIgwBlgEItz47L0VrvfGbcdtlysMsAj0WwRK2Gvqt824w%2Baqw3I6jKVcY4BFoB%2BEZrxzUCvWIsp1Q3B63LkZA4yBgcAAi4CLCBQVFVvePu1XPHv2bDzyyCN49dVX8c477%2BD555%2FHunXrUFdXZ12XSeNZS09bq47KFUGj0xmEDdIsBqcuKhf04nFGXtFrh0zwy%2FcMjn7KIuAiAhLc5PmvWbMWTzzxBPbv34%2B5c%2Bdh7tz5oKUnLl%2B%2BjAMHDqChYVgGQiBX3NTIJt5j7hdcAOCi%2FQ1sG71kVubUImDaSROJeCKB9hTtJtuPPzNrE7ZbtOzGIqCRSWPjcGzatAlPPvkkXn%2F9dXHE410YNmw4aLmJqqoa1Nc3YNmy5UgkHseGDRvE8hT96TiC%2BHJAoP3JM%2BfX5kMExNLXcgOcaHXMnLeXhnNOn%2FEkMcAioHSO1tZWnDx5Ek8%2F%2FTR27oxjy5atWL16DUaOHG1tSiM3p6mtrcfevffj%2BPHjaG4eCQoh3XdfkfiUxnX%2FNNb9tzZ%2BUfLXr3eEi2weseEl98TlqELZUF6kme680QnseTgJ137e2MkrVXjGfr0zPdu9vQnEE73os9VL7Zz%2BbOWdp7SB3GuhBz09fY78xP2mKFP59C0r7enbdzOzn9Pqq%2BwGZ%2BwvodaN%2F9bxzt8HBhMsArQqaVExamqGYM%2BevTh37hxmzJiJurqhIKIfMqQWdaOGY86%2BBWjf0I7WpWMx41AHhk8fgVWrVov5gVOnTmHmzFmoqKgUaalzCg5gC2LQwkAuQmCQi3qdSfYWYUryTxKPIFhrhJHufAwq%2BYlyamVzlKE9gUTcBKrLSCBdevbyKXsXW3VydgKjDE5ilnZNnadhg97eHiTavcptXCNFWReBVDZImbc%2BioknkmVwaW9ZH%2F50YoBtEqxNWATMDtnWNhEPPPAANm3aLEI%2B0uOnz7qxw7Hy4hosPLAAUzunYtljSzBq3ii0tLRiw4aNuHDhAl555RVs3rwFVVVVqecINKJ1Bzh5rklyt64RxCKFwSS4hLIkdr%2FOu%2BWhEmIaL9whAn7Sc9ZJCEMKERB1F%2FWikY4uBunydLGR2IFNKYfNZsYOZsmRQCobpMlbS9dqQxaA1P2D7ZN3%2B7AImKCbN28%2BTp58CIsWLbaFfppnNmPds2tw%2FKsjOPb5IRz5tBvHvz6Mrrd2YMrqKWK0MHz4CDFZ%2FOijj2L69OmpG9GPCHheoxKPStimpyCIRxJcmvMiD4NY7fsCm%2BEOzzJ4eNTp0vMgReFNpxMBSQwyD3m9%2FG49XZWsj%2BHZu9jA3LpTEr2ev20kkMoGPvMm28pRBgtBsB4t2zcz%2B7IImAQzfXo7HnzwQaxcucomAqPmj8LaZ1Zj%2BZmVmLB%2BmjjmHJuHzhfWYdqGqda1CxYsxJkzZ8SEcUow2ojao9E8ySfXIiBHFS7l8CyDeS2dt0JPMrTT%2F%2FR0Ek5pO2or1X7pymjue%2BwgYavsTpHonwikqK8ULlFeEicf18p7%2BDO1I8X2yal9WATMOYHGxkYcO3YcJ06cQHPzKIvcSQRWPL4M7ZvbUTmkRhxjFreI31QRoEdJE4kEFi5clKaBDOLxngzViE4FvM2bdhKYjSDdCFAlUPVvNQ%2F5d7rzFpGaopDueo%2FzvsJBskziUwnReKSZFBIXG1lp9CIRT6BXI2ebCKRKP9U5W3nJPkY55OgjWT4X8XXcy9ewvYLFAIuA2elKSkoxZ85c8U7A2bNnsXTpUowd24rRc8Zg1ZMrMG%2F3XFRWVgtxGLtsLFY9swJTOicLwVi%2FvhPPPfe8EJCmpqY0IkANahCZzZOmcijvCQhytBGUTiQuBGcjpnTnjfi33UPtQKIn%2BQy%2Bowz6xLCtfD7Tc4wenE%2FrWJ2e6iNDP2Y7iZGDkq%2BjjES4Vh1cbGCmI8i%2Bt9fxJJD4XZlncaSv2MBxTs1baUspAo4RiVkWq7783UffCZYQo9gWLAJKxysvr8CUKVNx5MgR%2FOQnP8FjjyUwZ9kCLD65DJte7MSYBWMxbOIoLDuzQoSDpq6ZioMHu%2FHGG2%2Fi2LFjGD9%2BfD%2FeGTAIyhaPVwmy2Hx6R4l32z1JF4LrpwgQ4A0iS8bS7Xno5%2BV8A3VEpfwKUadOT7mH6tXTZTyhpNxv74SmWCo2sIuWQQjeebrYSLa3CCWp9Umm5d8Gun2UiWvRFt52tdeTiY3tMXAYYBGQpGB%2BlpWVi8dCKTw0dGgDKiqr0Di9CcsvLMe%2B9%2Fai%2B6MD2PzqRoxfOwEVtTWora0DvWBGj5KWlpayJ6PZkzv3wHVutj3b3g8GWARSklYxiopiiJWVompoDZY9sBTrL63F8BlNKK0sE4RP7wSkfC8gZfoMUj8g5WsYJ4yB4DDAIuCDpCXJz98%2FDysfXYmqUbVM%2FD7sxh03uI7LtmXb5goDLAI%2ByEx6%2B1M3TMHMA7NRMbyGwz4%2B7JYrkHI6THiMgeAwwCLgg8ykCJRVlaO8pgKxUt5YhjtlcJ2Sbcu2zScGWAR8iEA%2BG4TzYgJgDDAG8okBFgEWAQ5tMQYYAxHGAItAhBs%2Fn94G58XeLWMgnBhgEWARYC%2BQMcAYiDAGWAQi3PjsmYXTM%2BN24XbJJwZCLQITJrSF0kMx3htIbkafzwbjvJggGAOMgVxiINQicP36dXR2dg6IEMjHQvVPaXxaXmLEiGZMnDjJOsaNG4%2B6uvoBKa8sF38yQTAGGAP9wUCoReDGjRv49ttv8yoEkvTTGZHWCzp06BB6emjfWuO4fPmy2JQm3b3GSpjJxcXkInL6wmXp0hnI8%2F3eByCLsJtztU7u5APZ9pz34MJf6EXg1q1beRUCKQKbNm3CW2%2B9JY7nnnsOCxcutHn4tGQ0bUr%2F6aefWsebb76JFStW2K5z6zDuBCpXzCyMzUfc6zC4Oodb2%2FFv3MaDDQOhF4FTp06ju7s7b0IgRaCra5eD3EkITp8%2BjXg8jtmzZ%2BdYBKhzmUstey6tHJ4OyCIQnrYYbKTE9ckvtgpCBAgU%2BRKCVCLQ0TED%2B%2FbtA%2B0iRttR5nYkYDa8y5aJgnCtNfXta%2BBTqITCSLZrtH0JyH6287ZN7OWa%2B%2Bpa%2F%2FY86H7bmv29CcQTvWI%2FALXDZpuH%2Ff7k3ryyjlZe2lr9bpvzyBBbn62u%2Be1cVnmzCIVFOY377huK%2F%2FyfL%2BLuu8emHV1H2U7Z1r1gRIAqmg8hkCKwevVqXLp0SRznz5%2FH7NlzQJvO1NQMQSXtMdA4HDt37hTn33jjDfziF79AduEgk6BsG8OY5K2SuiYSkpyT8wnO0YQgV880JPkniV%2BkqVyvf6cd0ATJKiOWbPMwBEAJhWk7eCXrRzbpQaJdErpWX81%2BxfGEcq28hz%2BzJY583E8C8Cd%2FAvzpn%2F6eRSBAR6KgROCJJ57EnTt3xDaQQYOQiJ42laGDnvipqKiwAZG2o6yurhHnN2zYiLfffjs3IiC2npSETPME8m9JXAbpya0KBUErZCzsYiPCdGkY6akka%2BxVLAnZ7X5zZGDl63aNWk4%2FeSQ9f71tqY628ukdgkRJipaouyy7tBl%2F6jYthO9%2F9VcbhQiQEPzN3yyx9b9CKH%2BhlLFgRCCfAuDVeOpksZw0pt9IMIYNaxQH%2Fe11v%2FxdeL0WgWoEpRK49LitUFDyiSJVBJwEqZBy2jRUsjbLopbBg1Rtdcg2D3G%2FN3G7iYAxckjawxIBOa%2FS5y0qsh34U8OeLq4D%2FL2oqArf%2B94%2FCyH4sz%2B7nrZfcXtm1p4FIQL5EIBp06bh8OHDYuKXJn%2F1p4EIYOpksXwqiH6jczKMJD9TAdJGoHpHI0KUXm0acqQ83AjS2MjeHEGkTSONCHjcb6uDxzVJG2SWh7zfXkcSuL6kjch%2BlL%2B0mbSnEC8SCW9xkenzZ2bkkQ%2B7yZDQd77zP3HvvSNYCCS%2Bc%2FgZehG4fft2XkJAy5Ytx9WrV%2FHRRx%2BJg%2BL9Y8a0YNWqVeKgv71EwA%2Fxqx3GRqC2xjQITnr5RlhGDwfZOywRJG3YrqZvxOxN8lO9elteMp00BO1xvy1fj2uSZcosD3m%2FTQREXnZiF%2FbURUDU1cjXOVKSdedPaeOwfhLxkwBQSOjP%2F%2Fy0HeeueOY27W9bhl4E8jUHQM%2F308Su6uHPmDFDPAFETwHR34GKgCA3J6ELsrV5sx1I9CTQbnYA47wa%2BjCERCW%2B1GmkIWj5ZJBKssLzt5c1J3mo9fSaGNYFR9pNli%2FeA0tEzdBQ8jsTRH8JIgzX%2F7t%2F95UQAfoMQ3kGWxlCLQLXrl3LyyQwNaqbCNDSELW1deKgv3MqAo44v927VYEmiV4%2B9qgTfG%2BiC4leJT6ujwwkkSt5JtNILwLW%2Bwvy%2Fp4u45FTLR%2FvcvrJQ3sMVZkQp3ST5dUedyXyV8NBUhTMsqr3qTblvwtHEGkEQCMBGhHQPAG3XW7bLtQiQG%2Fl5qvBKyurxcRuU9MI0EGPgsq8ZbgnVyIg083Fp06QuUiT08htJ2N7ZmfPv%2F3bDiEC%2FJRQdnb0wmGoRcCr0AP1e0vLWCxevNh20G8DVR7Kl0UgmI4xkG3KeTvb9Lvf7RNCQBPFbB%2BnfbKxCYtAPyaX6N0AemFMPei3bBog23tZBHLbIbJtD74%2FmPagR0RpJMDzArm3L4tAP0SAO3juAcg2ZZv6wYCcF6ARgZ%2Fr%2BRr%2FuGIRYBHgTsUYCD0G%2FvqvV1vzAvy%2BgH%2BC9yOGLAJMAKEnAD9A5mtySwxhsycRP4WD6CBBCFv5Crk8LAIsAtyhGAMFgQE5OfwXf3GiIMpbKMLAIsAEwB2KMVAQGPj%2B92%2BLkQA%2FIZTbUR%2BLABNAQRBAoXhVXM7cEpRqT%2Fnm8H%2F4D68zZnPIWywCpjHlC2Eq6Pjv4Do025Zt218M%2FPCH18RIgD77ey9f7423UIvAhAlteWvsxiHF2NBRhofWVKU8Ns0sw4ja4ryVi8HrDV62TbRs8x%2F%2F48tCBPhdgdy2e6hF4Pr16%2Bjs7MwL4W6bV4Mbp0bi2vEReHlfg%2BtB526cHo1t82vNMhWLJaSLiw1RoNEEE1NuAcr2ZHtKDMhlpVkEcouJUIvAjRs38rbB%2FO4l9XhudyPmTazGiKFVrsfIxmqc6pqOJ%2FdPxthhbg0hRcHtXPI3ehZ7oG4AACAASURBVMtXLgZnfKZeLlp2gjB9GnXwXvQuTGXlsiSxV8i2YBEIph1DLwK3bt3KixCQCHz1zBx8cbkTn1zyPn796hb87upmfH65Ezefl8c6nI9PwLhGf42kL%2FUg1sNXVs0MXUdVV%2BnM4YRU6OrJdQv1SJZFwB%2B%2F9LdfhV4ETp06nZcN5kkEfnt5Af7w9o6Mjp5HOrB4YpmvTqSLgFyqObTLHrMI%2BGrX%2FnY%2Bvr5%2FpMYi0D97%2BcVXQYgAVaa7uzvQEQGJwG8uzcGtS%2FPw8ZkWcdz68QL8L29u9SUKPz%2FbgWWTy32RRWoRkGvvm9soKhutGCMGJZTksp4%2FCYntOrnZiuLl2s7bRiDOvHv00JWZp7MO2jr%2FtnTNLSDlfgT6OaVsfoHL1wVDCGG2K4tAMG1eMCIQtBCsnFqBfUurMWlUBYbXlYpj2pgKPN41Gr2vLE8rBLkQAWMHLIOIe3t7kGhPNrpB3GoM3rhO3VqSiJnmGJIjCuc1Ih1VGMQuYTJd97zd9vDVRSBluvpuYPGErW5hJh4uWxKDA20LFoFg2qKgRCDIDecry2JoGzcabW0TUFlZheHDm9A2YTzaRtfiXHwC%2FuH1jSmFIBsRMMhbI%2BJEhzKqoFGBy%2BSxIFd5n7kzlzY6sO9T7JaOQfw2AbLl7b6Ru10E0qSrlXOgyYTzD4ZMgrYri0Aw7VYwIhCkABB4hw1rxKFDh7F3716xq1hrayuOHj2GHdu3YdO8Rrx%2FfnZORcD2dJDqmbvti2vz1lUg2MnXTszyOuUakY4STrLCM3KPYlUQ5P0%2BRMBnulRn3u9XsSuHwRRHJ71dpAj84Ae%2F6dd9QYtToadfECIQtABQI7a3d%2BC5555Dd%2FchIQLjxo3DhQsXkEgksHnpJLxwZFpORSAZstHB70LEORWB5MjBCV6XvImoKH%2BbUGk7mnmWT6ubtf9vqjJo9zBRMuGZGKCF42gV0X%2F7b%2F%2FINslhvwi9CNy%2BfRt37twJfMP5jo4ZeP755%2FHss89i%2B%2FbtOHDgAH7yk5%2FgySefxNaVU%2FHisekDJwJ6TF0CQAuziLCSHg5SCdorHZme2yiEzqUTgbTpqsRuCI23CKrX8t9OoY6uTf7rf90rRICEgO2SOxyEXgTyIQAEqBEjRuDkyZOgF9ToTeUPPvgAH374oRgZbF%2FUhA8uzhw4ETD3Eu5TnhRye6zUmFtQQy4UClInis15Az2dngTahRCkGAnY7tFGAl7lk%2BnGe5QwkEcelhDlDtxMFIPLln%2FzN0ssEbjvvqEsBDnqM6EWgWvXrgU%2BApBEQXsFjxs3HmfOnMXNmzeFCDz44IOY39GKC13j8fdXOwdUBKic9kc77eRO5405gS4kepW4vz4ysAg7eU3SK%2FciaON3MY%2BR4hFRKUJyvsNKV4wU3PIbXCQlscSfwbQrEb%2FcWOav%2Fmoji0AURKCpqSmvDV1aWoatW7eJkcCrr76KVcsX4sC6Mfj1S2vwh7e3pxSBa4%2FMwKKJ%2Ft4TCIokDBFQnyoKpjMGVX5Ol9srHQbkngI%2F%2BtGlvHJDunIV8vlQjwQGwrAbN27C%2B%2B%2B%2Fj5dffhnzF87HtLHl2LmwBvGFQ1Ies8dXorK8ZECBySLAJDoQfSafedJeAjQa%2BNM%2F%2Ff2A9rV81jnovFgEimMoKkqSx7p16%2FGzn%2F0ML730EubNm4ey0hiqytMfdF3QjZUufRaBgW%2BDdG3E57NrI3VymOcFsrOlxCKLgBZXa2kZi%2F379yMej4sXxqSh%2BDM3gGM7sh2zwcDdd4%2FleQGNs7KxJ93LIqAZlOYFamqGoLq6BjRZnK2B%2BX4mPcZAbjHwve%2F9sxACenmMbZu9bVkENBFgUGUPKrYh2zBIDPBew7nFF4sAiwB7U4yBgsIAbzPJIlBQgA3SI%2BK0c9sZ2J6FYU%2B5hhCFhbjNsm8zHgmwF8gdiTFQUBhQ3xz%2B8z8%2FXVBlD6NosQikIYDa2jpMmTIFa9euRVdXl9j4fvr06aivH4pYjN4L4M3lwwhsLlP2HmKYbSjnBeidgb%2F9W35BMpu2CrUITJjQNmAqP3RoA7Zt24ZXXnkFPT09uHr1Kn784x%2Fj9dffEO8RXLlyBXv27EFT04gBK2M2Dc%2F3Dm6SHOzte%2B%2B9IyCfEqI5gsFe3yDrF2oRoIXcOjs789rA5N1PmzZNLCNNxH%2Fp0iW89NLL6OrahaamZuzde78Qg4sXL4pVRp955hnMnz8f9GhpkA3FaTNpMwbsGOAJYrs9MsVHqEWAVvT89ttv8yoEU6dOE3sIXLz4KGbNmo1Nmzbj2LFjmDx5CsrLK9HWNhEHDx5EZ%2BcGTJo0BadOnRZCMWfOXBaBNKG1TEHK9%2BWmsw82O8oJYl5CIjt8hF4Ebt26lTchoBAQbWh%2F7tw5TJs2Xbw0tnv3buzffwA0N0AiUFNTi3379mP37j2orh6C1tbxePjhh3H69GnQ28aDraNlVB%2BX%2FQcySodFhfGUAgM0KUxzArzJzCAXAfK0iZjzMSJYtWoV3n77bbz33ns4f%2F48du6M49FHH8WuXbtRV1dvHfSdzq9Zswb3338%2FXnvtNbHoHM0hlJUN7EqioSBbFgEm7xTknSuMynWEvvOd%2F8n2zsLeoR8JkAgQaIIWAvL0Dx06JEh%2F2bLlWLlyFU6ffgTvvvuuIPh33nkH8qBVRilUdfnyZdBIYfnyFTh79pwYETQ3j0wJSLHmvm2Nf2PjF3XvXbFvQE%2BX2B%2BgL4Br5YY0PXEjb3WzGn3PAnv%2BhseR6hpRP2XvYrf7c0UCnE52HmCh24%2F2FJD7CxR6XQay%2FAUjAmSkIIWgpaUFZ8%2BexYEDB1FbW48hQ%2BowZ848sfH8kiVLMWZMi3XMnj1HhIRWrVqN%2BvoGESK6%2F%2F59oElienw0ZYPqXjJ9J9JUyJ6IVIhCUNea20j29vYg0Z4kEoPc1f1%2Fzc1klLL5ucZtO8qUNsnCi%2BF0k%2B0XNVuo7wtEre65rG9BiUCQG87THsNPP%2F20CAFR7J8OIvsdO3Zi0qTJ4rv8ffToMeLx0NWr11i%2Fr127Dk899RSWLl2aWgS0%2FXgF4ScS6LU2cifvvNcg56CulSKQUJ%2BvVvJVSVmUQQqDn2vc9yTOJWg5rcIgflrq%2Bb%2F8l0OglT%2BDaDMWgdzgoGBEIEgBIIDOn79AePLbt%2B8QK4gS4ZMwbN26FVOmTLXInn6fOHESdu3ahYULF4nfKyurQSJAm9JTKCk14NUtHIlUiWAVcrV5%2F%2Fm41gSSGJFIslfBpZVN22vYqKtyDQmIrQ5qWvx3amwMLvv8p%2F%2F0pAjX%2FPCH19L0iczqzSKQmd10DBaECAQtAGSUmTNn4fnnn8d7772P119%2FHY888giOHDmCU6dOCe%2Be3hCWk8MUHqLz9Abxpk2bxAjg5z%2F%2FubifHivVjax%2FFyEVCrGQl22OAGQIiM5Ze%2FPKfYVzfq0qLiaQWATStpvejvw9NQnJXcDo7d4gbMUikNr%2Bfm0eehG4ffs27ty5E%2FiG883NzWJi98KFC8LDX7p0mXg%2FgASBJoflpDB90nd6guiJJ57Ahg0bxPU0MUxPDI0d25oe8Cb5x1XCJxLuSYhN4tVJYikUub3WRQS00JMFIDUc5OcaHgmkb3813DaI%2F5Yi8O%2F%2F%2Fc1AbMIiEBERyIcAEOGVlJSJZSIorj9v3gIx2dvYOByHDx%2FBiRMn0No6TkwM08tiJ08%2BhCNHjmLEiGYxOmhv78Bjjz0mdiSjDWksAvXs4BQ%2B6UOfjP3TdUIYetHrCLcEca2LCBTHjKeRbPkb16kjE%2BPpHzVs5LxGhINs6eQGrOntyvmEyUZSBOgziHL95V%2Fu4KeDPDnGf18I9Ujg2rVrgY8AVHBOnjxZkPmhQ4cxbNhwEe%2FfsGEj6MkfevST5gPozeF9%2B%2FZh8eIl4ntd3VDxpBCNCjo65ERr%2BkXlBJlak8HUYAaZqk8JybLl%2Flp3EaD8jKd%2FSKCMQxUAWZ7015h10Z56kvfzp%2F8OWsi2kou8BSUCf%2FEXJ%2FhlscEuAk1NTYF4EF4di9b%2FoRfGXnjhBbFGUENDo5gUpkdTacKXRGDbtu3ifQJaR4geJd2%2BfbtYQ2jLli2oqKjIa3m96sG%2FR4Nkw97OUgSCWuBNLhvxgx%2F8hvtdFmIQ6pHAQICcwjnk%2FdPqoTQ%2FsHr1WrE%2BEC0TMXLkKBw9eky8O0BPDD300MNCAEgIaERQVJR%2BBDAQdeI8WRQGAgNSBILaC1iGm4KacxgImw1EniwCmoLSKqJVVdXiHQFaMoKWkf7www%2Fx8suv4PHHnwCFqOiNYfqkl8PoSSG6ngWAiXYgOnCY86Q1feiN3qBEgMif0g8q3BRm2%2BaybCwCmghI49IaQA0NwzBjxkwx4ZtIJATp0wTw3r17xSOlNHFcXs4hIGkz%2FmQhVDEgRYBeGFN%2Fz9Xf3%2F%2F%2BbSEC9D5CrtKMYjosAh4iIMFA8wTV1TWor68HrTJK7wrQd7lQHI8AmPgkVvjTjoXvfrdPkDQt9JZr2xQVVYm0aSRATwnlOv0opccikEYEogQGrqudxNge2dlDLu4WhAjQlpIy%2FbvumsQikAWPsQhkYTwmiexIgu03uO0nSZpW%2B8x1W1OIidLnZaSzxxCLAItAzjtorjs8p5d9Rx8IG0oRoDd7c50%2FrUdE6fOuYtljg0WARSDnHTTXHZ7Ty76j59uGtIJoUCJAm8zTCIDS50nh7LHBIsAiwCLAGMg5Bmj56KBEQI4CSAhIEPItcIMtPxYBkwAqyu7DwrYSHF9VhYfWuB8Hl1Rg6shSBh2TJmMgDQaCEoG%2F%2FuvVlrgE9f7BYCP5dPVhETDBvHpaOa6dGIXPzrfi5qnhrsfnj07Byc0tGFZTLF4Oo8dD%2BRHR7Iej6UDK5wvPxkGIAHn93%2FvePwsRoHcQ6DFRxkb22GARMEVg18IavHO4AZtnV6GprtT12LNoCF47UI810%2FkFMe582Xe%2BwWzDXM8JkADQJDCFmCgMRI%2BIDmb75bNuBSkC9LLWmTNncgqC3Ytq8GZ3PZZNLvdMd3RDDI91teKr51fg46dWWseHF%2Bfi%2BNpGNNXy2kH5BC%2FnFW4hknMC2T4iSu8ZyBfPKE1%2BOSy37V5wIkAC8Pnnn%2BPjj3O7UYUfESiJxTB5ZBm2zKnGjgU11vH83ma8fngEFrWVeQoIE1Zugcv2DL89Zegm05fFyNunFUKlmNAIINO0GC%2FeeCkoEZACQGvdf%2FbZZzklXD8iQEAqLYmhsiyGqvLksX%2FpELzVPTTlKEIHob4mv7qbmH7OvseA3AtAWbNf3ZzG3JegJ%2B513hsMehn5O9sqGwzItYP6O4FL7xXIFUKlANBicfxmcDB4LBgRIAH49a9%2FjX%2F6p38SG54MlAi4dQpVQPxMFhskr%2BzO1Z5AIm40sOOcY7MZSe69SLQb99g3nUl3PhggudmFf4u2raUXn24%2FAZrgpRAPEb8cPUjypzAQe%2F%2FB4qggREAXgIEcCbgRmyoCbuftvxnbRaqef%2FI8nUuSu%2FW7us%2BvKQq2Hb%2F6dT5YQFllTvMIIV83%2BNuByJ%2FI3GvTF3qCiIhfjfdL8qdRBI0gaIKZsRIsVkIvAm4CELQIDK0qwtHOVmviV50Edvv7lz9ehd%2B9tArvnpqMVdPSPDlEG8p77b%2FreU4VB8PTt4mIbQP4dOeDBRR3WLavxIDc%2FpFi%2BerSEZL8JeHLTyL%2BH%2F3oEj%2F5k2cHKtQi4CUAQYvA4olluPbwVPzD1Q39Op4%2FMAltTSWpPRdPoo%2FBe4N2FgFJLPxZOCKjLu9ARE%2Bhnu9%2F%2Fw%2FWRK%2F8jTx%2BfuRz4No1tCJAAnDz5k1rw3MifvWgc7kkBDWks3fFKNx6YVm%2FBODvXlqGg2tGoqwkTWPavHbtWq9zLuEeHglotsuz95RL7A3WtCjW%2F8Mfvo3vfOf%2FsxE%2Fkf93v%2Fv%2FiHAPv%2FA18DgOrQg0N4%2FEggULPI%2BpU6cFIgJHllfix92T8A9XOvslAj2np2PJ5DShIJOoxESuGhJSJoYd5xxzAOnCPenODzzoBivpcb3s2CIPX4Z69M%2FvfOf%2FxX%2F7b%2FNy2ofZ%2Fnb7%2B7VHaEXAbwVydZ0cCfzk%2Fjp8%2BcSMfgnA76%2Bsw0PbxqG2qsg3qA2yl6Mb%2B2Sw%2FoiobRLYegRUaXDbCIJFIFeY4HQUjGUw0iKSp83m%2F%2BzProPW%2F6fwEK39IyeCKTxEv7Gds7NztvZjETDBvXpaBV7ZMwQfn5%2BC37%2B6rl8i8PnjM7B1TjWKi2ktoYFt0GwBwfdz%2BwWNAXURONonmL4HnSen741rFgFTBKrKS9A%2BuhSbZ1dYbwKrbwWn%2BnvFlDJeMiIDT5E7pnfHHOy20UNFNCqgR0p5gjj%2FmGARUMirrDT5FrD6RnC6vyvKYiiJ8bpBg524uH65JSgaAdBIQJ8voP0C%2BP2A3No6FXZZBBQRSGUoPpc%2FULKto2VrWg6CRgbq28K0YigLQX5wwCLAIsDxWMZAKDBApK%2BGiVgIBkAESBH4YBswBhgDA4mB4uLzVojo3%2Fyb%2Fxt%2F%2BZfvoaami7kpQH7%2Bk6qqIWzgAA08kB2K82ZCL0QM3HXXC5YQyDmD73%2F%2FW9TXb2CuCoCrWAQCMGohdjwuMwtGmDDQ0LAaJAY%2F%2BMEdSxBoZFBbu42FIMecxSKQY4OGqSNxWZjYBwMGKBxEAkCjAhIFEgc67rnnWTQ2LmVRyJLDWASyNOBg6GRcBxaLsGOgouKwNSKQISL6pDmDsJc97OWLnAjMmrUAEye2M3BY%2FBgDBYaBqqp9%2BNGPbtkOEoewk2zYyxc5Edi0aTu%2B%2FPKrUArB6NETMGqU%2FaDfwg4iLh%2BPJBgDhYuBSIoALUsdViGIemd6%2BEsA%2BBoPZ%2BGl5iKNXLbD%2Biv%2Fgyql%2FMuufrksG6dVuOSdq7aLrAj8%2Fd%2F%2FfoCEYCLGzZ6MmUdmYdljS7D47CJM22iEpyYvnY51T6zBqkNrsGTHCsRfjGP8kinhHQk8%2FDXwx9exPgvCzhWQA00n43puxpU%2FEvdrpP%2Fw1%2Fjy4RyST8bl8yhDrtMb7Pgo8PpFVgRmzJiHfAtBy9iJmNO5AAff2Y%2Bzv3oE5397Bud%2FcwY7ntiJqSs6sO3lLXj4k5N48MMTOP7zozj71Wlsu7QFU9dPD6cQRIUsMqynGAHkQyQzLJ%2BncOY6vQInSU87DZJ6RVYEqGHzJQRGrH88pixrx46r2%2FDIlw9j%2B0vbMGvfPMzavQgzts%2FBpCXTsP6ZNXjgg2M4%2BO5%2B7PlpFx764gGsfmIV2lZNTSsCFAL545UzpudpRB6Et7n%2BdQhnVPykeaS2c9C8esOL%2FfJh6c1SAv8DV9Yb3qMRcjHyEf9%2FecYqoz38kbxnzJjUaVKbGPXYbKWVSb30NCjdTMvkv54AFBuMGXMGFNny4%2FHby6ank9pm%2FsuXbAcjPxULZht%2FeUbYX2lVrU7JkYNeZqueJCDWv2Seg51IC7l%2BkRYBarh8CQHltWTncpz%2F9Rnsf%2FMgJi6dgZYJE9Ey3jhaZ0zB%2FOOLcf%2Fbu7HzxR3ofHYDjn50CHOOzkPrXH8ioJK01UktTzTZ0SVg11%2F52iJ1SdBJIjOv14nfSq8NY1w8RpGvfo0VDkmfpk7gBsklycRPvfQ0si2TZz2tehE5avYVZKgSbZJApf3p06iPep2Wjkw3gHb44xVDbF3to7ah5vE6yrz%2BdVyh8JZwKpJtNebh1xV8uddftQX%2FPTA2irwILF68Ev%2F4j%2F%2BId999D62tky0PNNeAbJk0Base2IALvzqLree3YczYNqhP%2FsxdvwBH3zuMR393Hhd%2Few4XfnMWj%2FVewMGf78PMrllpyyXIMp0n6kLatnrazhtkJIlCXCc6uUJYtusJwOT9KiQgyMNIx%2FAU06epE3gm9bKnkX2ZnCLglqYkQdM%2BvkTARzqmCOS2HdSyupTB0a4qOdH1HiMcHR%2BaeNiwxufS9ul82SvSIpAvAaDGbJk8GatObsBjv7uAnY%2FHHSLQOn4yZm%2BZix1Xt2Lrha1Yf3wjut89iOlbZmJs26S0gLETnwchu3Ruw6uzxu9KSEglb5MEHJ6eNjEsiE9JS%2FlTFQErdEBEoKWp10P%2F7io0Wr1s9%2BSgTA4REGkqYmgRmkKontcohOp5jZKOFUJT7tNs5l4%2BxfjKn6rtyU7in815cB%2FhWYTkWWYqn4EZSlPNx7rXspNSF%2F4tbd8O2n6RFYF8CoBoxJY2LN%2BzWojAgZ%2Fux6TVzsne1vYpmLxpFiYt70DbgmmYtmMWWtr9PR1kIz7RsVQiMTsddWBrmG94dMnveufPVATcyFF2%2BvRp6vXQv2cmAtmVyZ1k3dJUbK4TtRvZeRKqkk7GIuBWPtkOxqd0AGyjDCqnDSf2e8Q5WxhMO0%2F3i7qTFKQvQ9AEx%2Bm7tI%2BGxciKQD5CQCoAKfQzbVUHdr8Tx2N%2FdwEP3jiB%2BOWdiL%2B0A5seMidCW8w5gnET0dLaJuYLxrTYw0Zqmurf%2FSZL0VHtndQeG05P2A6ySEt86dPU66F%2F77cI5KBMvutps6lR1%2BQci0tn9CqbSzo2z1q%2FTydt%2FbzW6QVuZB5u1%2Brpqfe7Xa%2Bet%2F426u8QGOu8iz343ICMCiIrAkHPAagETX%2BL%2BH9rG6avn4mdr23HxV%2Bfw8Vb5%2FDI5w9j8%2BktGD3aH9nr6crv%2FSZLvTOL7%2BoTQukJ280rpHLYPcDNuPKlfJcgfZp6PfTv%2FRYB84mjbMrku55%2FpCe0kk82GWVVbWoSn%2FKegKu9bOmkt5nv8mntIMtqF39zJKB68RpWHGWWE8NKvWRoyCZeTPIDQvKSI7w%2BIykC%2BRYA1fgt4yZiwrSpmLJgFqYun4MpszowfpLx9I86Uaze4%2BfvTMhShgNEXJjCRDYP0Af5KDFg1eM1SEKkaiRtEWP6NPV66N8zEQGyXzZlkoQmKqPEz232I6636ql6uUadk9ZwikLqdNLbzKt8XnUWv1thQSqrERpMll8pM9VXEwGnPc2HAaQjYVY2mZ5qD%2F7bT3%2FO5zWRE4Hp0%2BcE%2BhSQ78ZrabMmh0eNGh9KD8F3XdjD4%2FZjDBQsBiInAkxs7IkxBhgDjIEkBlgE2IMpWA%2BGO3KyI7Mt2BaZYoBFgEWARYAxwBiIMAZYBCLc%2BJl6Dnwfe52MgcGDAUsEiotj4INtwBhgDDAGooMBEnMWARY%2FFn%2FGAGMgohhgEYhow7OnFx1Pj9ua2zoVBlgEWATYA2QMMAYijAEWgQg3firvgM%2Bx98gYiAYGIikCzc0jUV1dw94PCyBjgDEQeQxEUgQWLFiAmzdvhlQIilFU5DzYK4uGV8btzO2cbwxEVgT6%2BvpCLATR7gjxnj709fUgnoWXmos0ctEZ2xO9IKzpR2%2Biw%2BGBul3rdl0uysVpRLuPqe0faRG4devWgAlB5fAqjFnbgukHp2LKnklo7GgUpFA%2Frh5zjs3EtC1TMWHpBKy8uALVLUMchKE24oD%2BHe9BX28C7VkQ9oCW32%2B5M6ynIPaeLq39utAjhMEudI5r2xPo7etDT5wJqyAw4hdLIbsu0iLQ1NSEfAtBrKQUI2eOwsaX1%2BPQZwdw5MtuHPniIJY9tAQNE4di6cXF2Pf%2Bbuz66U7seGMruj%2Fej6VnFmPY9AaNSEJCDBmSY8F16gzr6SB2iwA6kOjtQ58iEG7XihGNck3B2c2qb0jwyuVx8EikRYA6VL6EQMb56yfUY8UTy7D%2FF3ux7NElGL28BaMXt6J53ijUttZi7oOzEX9nO7b8ZCPWv7AGez%2FchRnHOlDbVudoPJ0QiDB6E10GuZghCOFFmh6lEZKwe5%2FFtnN9mldvEFVP3CQskWYvEu1GhzZCLkqoQyErQWhWGCR5T3Fx6jSpTkY9kuGSTOqlp0HpZlom%2F%2FW0k7qVp2IXW5uRsChhLy8RSBUSstdJGTWItGXbqPZnMra1AYuCWDMqcm8M08QwEaIEQ76EgPJrWz4BRz47iA2XNqC2tQEl5aXWUd5QhXGb2gT5r7i4HPNPzsfOt7di7LpWVDSmf5rJIKtkh7cIwgrXuHmfPRapS4JOeqeS%2FJNpijys9GIodvGQRb76NRbZpU9TJ%2FBM6qWnkW2ZPOtp1YvI1c2%2BvTZvX2JOfAoBTtpWlFEVDE0kbPdaoqaIensCCQodaekWxxNKG7MI6HaM%2BvfIjwQIABMmtOH27dt44403UVpaZolDrsFRUlmB9h0zcfTzbiw8sgDFJSXiSSCZz6hZo7D9jS04%2FsvDOPbVIRz5ohsnfnUEW17dgFGLRqYtlyBLlUSKjdizLabsQtoyf%2FFpO2%2BQms0TFQSjEI%2FteiIYyjNJbEbaRjpGOdKnqRN4JvWyp5F9mZwi4JamJOCkfRzEbvM87WmIa63Rk%2BHF29rOca%2Fi%2Bavn9DZSz%2FHfafuRrT9EwF6RF4F8CQABS4jAzpk48csjWHZyCYpjJTZAllaUYdS8kVjx5FIsODYPs%2BIzseXVTRg%2BawRKK9OLk534PAjZQdp6mEQNCankbXqQDi9Tmxim9DUik99VEbCRm5amXg%2F9u6vQaPWy3ZODMjlEQKSZJPskcbgQu02YFU9cq7dTMAz7J0dmyr2e%2BdM15n08qWzrX8k2UuwYAZJPV%2B9Ii0A%2BBYAaIhYrweQ1k4UIbHpxA%2BonOSd7y%2BsqMXT6CNSOa0DNqFo0zh2JktpKX2C2EZ8At52QBBhsZEnnVdLXwzuZioAbOcqOlz5NvR7698xEILsyBSICtrYwxVgXDE0orA6dUgRMW4t7aUSRqu6yXfjTsm3EhCHSIpCPEJAOrGGTh2Hdj1fj%2BDdHsOvaTiy%2FuBTLH1uKuffPMYg%2BVoKSslLESkvEQXMGxbGYLWykpym%2F95ssBUnYCUJ4o1Y8Pz1hO8jRi7SsjpU%2BTb0e%2Bvd%2Bi0AOyuS7nppNnd69JFtDgNURkeu1WnqyrR1xf8u%2BMn35adjbFtLzvFbew5%2BWnSNgq0iLQNBzAE4gFQtib2xvxMonl4u5AYr97%2F9wL%2BYfmCdEgJ4ict7nr1P2myx1chTf1ZFBesIW5Kh5mlQOu%2FfZgUSPfJcgfZp6PfTv%2FRYB84mjbMrku5699IRW8skmRoKMKAAAIABJREFUb2L38ySRYSsrHKS1l8POcmI43qO8W%2BBi7wgQW6Z9KIr3RVYE8i8ASSInT7%2Byvgp1oxswdPxw1I6oQ8UQfyGfVCDNhCwFSckYPo0AbCEKFwLRiEiNP1tkZZGufERRJcb0aer10L9nIgJkN4M0MyuTVz1t9utT62m0t37e9TFdk5Rdr1XDQw7b63UyJ%2BSlmJvtqopSKvzwuWQfjZItIikCDQ3DAn0KyDeAYjFrcjibEYDv%2FNgDzHiUxTaOJkFGod0jKQJRaFiuI5MWY4Ax4AcDLALsHbN3zBhgDEQYAywCEW58P14CX8PeJGNgcGOARYBFgL1AxgBjIMIYYBGIcOOzhze4PTxuX25fPxhgEWARYC%2BQMcAYiDAGWAQi3Ph%2BvAS%2Bhr1JxsDgxgCLAIsAe4GMAcZAhDHAImA2vtz0hb2ewe31cPty%2BzIG7BgItQjQKp%2F5arDm%2Bhi2zCrDQ2uqUh6bZpZhRG3m6%2Fvkqz6cjx3obA%2B2B2PAHQOhFoHr16%2Bjs7MzL0KwbV4NPj43Dp89Ogk3z411Pejcx%2BcnYNv8WrNMxebqnoYo8NIP7iDjzsd2YQyEFwOhFoEbN27g22%2B%2FzYsQ7F5Sj2snmrFtfj1GN9a4HrPG1%2BK5Qx14cv9kjB3m1qhSFNzOJX8zFjLTd99KnjcWSHOuMplJRxKLkqmLkKWJfToXa1PLxX9n0gZ8D%2BMmzBgIvQjcunUrL0JAIvDNc3Px9Ysb8MmlTtfj88uduHVlC353dTPo75vPy2Mdntk3EdNHl%2FoatcjVLL1WdyTi7u1NsTdtGiJXAcciwASk4oH%2FZjzoGAi9CJw6dRrd3d2BCwGJwG8vL8Af3t6R0fHumQ4snVTuWwQEyWvr8BuNYyy1zCLAnVXvrPydMREEBgpCBKjiQQtBtiLw87MdWDa5HyKQ6EKi12WjcHM9%2F3jCORJwrDfvEuaRowyxbn1vAunTsYelHOEgsY2hXIPffm0QgOQ0megYA%2FnFQMGIQNBCkH8R6IAgdWsrR6PhJQnrYRxDANStII0Rg2MjFzU9SeCKWDjyFNck05X5i46ob2ISTyDRnl%2BAMiGwvRkDwWKgoETgiSeexJ07dzBnzlxfYZf%2BgGcgRMCxQ5YgXYOQ7SLgsmE8zQso1zvSMucNxMjAEgG3dOw7fTlFICkQ%2FbEnXxtsx2X7sn1zhYGCEYEgBYCMOTAiYGwPKCeIVeJX%2F3bb39YAgELqNkFIdhBnOjK0Y%2F%2BUG57bRKDYHG30uYSt%2BjE5nSuwcjrJdmVbsC1yhYGCEIGgBYCMOVAikPTmiXCTMXcnebt55IoIaGEdCRB%2F6SQ7lF0EzN%2BFwJBouJUhea%2FMkz%2FZJoyBwsFA6EXg9u3bgYWAVKAOmAiY3nZPTw%2F6lHi%2BjbwFCScFwiq36v17XGMLB3lcY6VnbsYuRybq73KjdfdzhQN4e5243GwPxkDoRSCoOQAd%2FAMnAjEY4Z4%2BqARrEwGTnO2euBGqUe8RhK8IiUzXMXls8%2Bg7kOhJoF2ZQ7DSjPdAhomkCCS%2Fc%2BfRMcTfGROFiIFQi8C1a9cCmQR2a6gBFYFiCuvYQy26CFCZxW99yVi%2BRdZWfD4ZwxePiPZ0GfdYE8NGJxVi4ZGOLRwkRg6p8uNO74Yl%2Fo1xUUgYCLUINDU15fwpIK%2FG2b2kDr%2B9PD%2BjF8XoBbP%2BvCfgVQb%2BncmDMcAYyDcGQi0C%2BTTGyKExrG6vQHzhkIyOJZPL0FDNq4vms804LyZMxkD2GGARKI6hqCiGWCyGirIYqsozO%2BheSoNByTZgDDAGCgkDLAJWPJ2BW0jA5bIyXhkDucEAiwCLAI9eGAOMgQhjgEUgwo3PnlRuPCm2I9uxkDHAIsAiwF4gY4AxEGEMsAhEuPEL2XvhsrP3zRjIDQZYBFgE2AtkDDAGIowBFgGz8WmTeN4oPjeeBXtobEfGQOFgINQiMGFCW948lOb6GLbMKsNDa6pSHptmlmFELb8Uxp28cDo5txW3VSoMhFoErl%2B%2Fjs7OzrwIwbZ5Nfj43Dh89ugk3Dw31vWgcx%2Bfn4Bt82vNMsnRgyEKPJLgzpaqs%2FE5xkcYMRBqEbhx40bgG8zLRqEF5K6daMa2%2BfUY3VjjeswaX4vnDnXgyf2TMXaYG6ClKLidS%2F6mL%2BDW1%2BeyTHSEY5SyTfgziRm2BdsiKAyEXgRu3bqVFyEgEfjmubn4%2BsUN%2BORSp%2Bvx%2BeVO3LqyBb%2B7uhn0983n5bEOz%2BybiOmjS32NWmwrdVqrg7IQBAVyTpcJlDHgjYHQi8CpU6fR3d0duBBku5T0u2c6sHRSeUYiINfqdy4N7d1wDGq2DWOAMZALDBSECFBFgxaCbEWgP0tJ6yMBmwhoa%2Firu43JBreFk3oTiCd6oW4cQ9fZ9x7QRhliK0q5T4B2jsNQvoRctgV%2FMhEXOgYKRgTI0EEKQRhEgHbtak%2F0INEuO5a5SYyyKYwQgDS7hwkBcFxjblqjbzEZTyj5yXz5s9A7NpefMewXAwUlAkFuOD%2BQImB49vadxawGJK%2FdInRlY3nFYxf3W0Lhdo0hJmJrSCECHnkpaVr58288MmAMDGoMFIwIBCkARHj5FgGx%2FaPc4tEiecN7sYdy%2BpIi4EHg4nopArZQjwz5GJ%2FG%2FsDJLSh5v2D2FlnsGQMFIQJBC8BAiID7JDB58QrpkwemjgQEwTu9eKcIOK9xdHZr7sHHtewJDmpP0IENbu9ItXfoReD27du4c%2BdO4BvO53sk4CoCLp6%2BLb4vzjsncm3hII9r3Du6MSpwLQsTQaSIwB0f7CVHwS6hF4F8CAA1dHhEQCF56a1b4SIzlGN9N0cKNHqQ4aDiGJxzDB1I9CTQbo4skmEgZa6ASZ9JnzEQSQyEWgSuXbsW%2BAhAKn0oREB%2FtJPIXg0HiU6ajOmLeYWeLuNxUEUEqE6GECTnBCxvXwqLOR9h%2Fc4EEEkCkPjnz%2BiOekItAk1NTXnrmLuX1OG3l%2BfjD2%2FvyOjoz3sCue5wRPhM5tHtxLnGE6cXLSyFWgTyCcaRQ2NY3V6B%2BMIhGR1LJpehoXoAVhf1mCzOp%2B04r2iRBrf34GpvFoHiGIqKYojFYqgoi6GqPLOD7qU0gu4gepinr4%2Bf7gna5px%2B8LhmGw%2BcjVkEOBYeuHBxBx%2B4Ds62Z9unwwCLAIsAiwBjgDEQYQywCES48dN5CHyevUjGwODHAIsAiwB7gYwBxkCEMcAiEOHGZy9v8Ht53MbcxukwwCLAIsBeIGOAMRBhDLAImI1Pm8TzRvHsNaXzmvg8Y2SwYSDUIjBhQlvePJTm%2Bhi2zCrDQ2uqUh6bZpZhRO0AvBQWYU9lsHU6rg8LSZgwEGoRuH79Ojo7O%2FMiBNvm1eDjc%2BPw2aOTcPPcWNeDzn18fgK2za81yyRHD4Yo8EiCO3eYOjeXhfHoBwOhFoEbN24EvsG8NBItIHftRDO2za%2FH6MYa12PW%2BFo8d6gDT%2B6fjLHD3AAmRcHtHP8mbc2fjAXGQHgwEHoRuHXrVl6EgETgm%2Bfm4usXN%2BCTS52ux%2BeXO3Hryhb87upm0N83n5fHOjyzbyKmjy71N2pxrAyaBSBymRaHnPy1H9uJ7TSIMBB6ETh16nSgG8xLjyTbpaTfPdOBpZPK%2FXWOXBJ3LtMaRMCW7cqfWTgYjAd%2F%2FbnA7VQQIkAdubu7O9ARQbYi4HcpaccCcMo%2BAPa9hZXNZQhkRPZyT%2BI%2B45xnWi7XMhkyGTIGGANuGCgYEQhaCPIlAqIRXLx32zaSFumbK4TqW0bGE0i0m4DW00p1bYF7LG4A5t%2BY2BgD2WGgoEQgyA3nB1YEaIN5zfMvVrZ%2BFMTusWS0qwh4XMsiEInhPZNidqQYNfsVjAgEKQDU6AMqArbwTXJLSAr%2FGPsBJ7eUTO4P7DESMMUjeS93iKh1aq4vY74%2FGCgIEQhaAMIhAj68d2t%2FYOVafSQgvX23a%2BU5%2FuQRAWOAMWBiIPQicPv2bdy5cyfwDecHdCSgx%2FFTdlBjVGDtKewlAiIN7dqU6bL31B%2Fvia9lvAwWDIReBPIhAAMyEtC2hTSe9FE8fArr9CTQTsQd7zHDQtTxlLkC85xti8lU17IIsPfHGGAMaBgItQhcu3Yt8BGAVPO8jgSUuH2f8oio%2Fsin5e1boR1jvsD6XTRmcr5ApJXyWvbeZHvzJ2OBMWBgINQi0NTUlDfV3r2kDr%2B9PB9%2FeHtHRoff9wQYeEw%2BjAHGQJgwEGoRyKehRg6NYXV7BeILh2R0LJlchoZqXl00n23GeTGZMgayxwCLQHEMRUUxxGIxVJTFUFWe2UH3UhoMSrYBY4AxUEgYYBHQJkkKqfG4rEw2jAHGQLYYYBFgEeDRC2OAMRBhDLAIRLjxs%2FUg%2BH72QhkDhY8BFgEWAfYCGQOMgQhjgEUgwo3PXlzhe3HchtyG2WKARYBFgL1AxgBjIMIYYBHQGp82i6ejrKwckyZNxq5du%2FDQQw%2Fh9OnTnscDDzyAzs5OjBjRzJ1Js2e2Xgrfz54uYyBYDIRaBCZMaBsQUh0ypBZbt27D66%2B%2FjuvXr4M2vP%2Foo488Dzr%2F%2Fvvv44EHHsTo0aMHpMzcUYLtKGxftu9gxUCoRYAImDzsfBt%2F8eIluHLlCj755BO89dZbuHDhAk6ePGk7zp49K0Ti008%2FhTyuXr2KJUuW5L28%2BbYP58eEyBgYPBgItQiQh%2F3tt9%2FmVQgoDLR79x7cvHkTjz%2F%2BOGbOnIVhw4ajoWGY7aDQz5EjRy0BICF48803sWLFisiIgHPl0%2Fx0jIHKl4kvP%2B3Lds6vnUMvArdu3cqrEDQ2DhdhHSL17u5DqK2tR3l5peOorh6C%2FfsPiGuamkaAjmHDGlFZWVX4IuC2R4Hbbxz%2FL%2Fy25jaMfBuGXgROnTqN7u7uvAkBrVxKoR8SASJ5IvtUItDVtUuASE4oy8%2BC9mbcCN%2FtNyaQyBNIQeOc8SvwWxAiQEDLlxBkIgL9Jn5tzf%2B%2BXnPzGBOUFO6gPQPaE72gvYLFkcE1tBmNdb%2B2kb0tbeWcvqcB7VHg9hu1iSynQQRysxtlfwMlXUkWtrR6E4hTHZU9FVKVWU3DtqeC73r22fOyNuhJXWaZL3%2FmN0zB9s6PvQtGBAgQ%2BRCCfIhAe6IHiXbZwCYBKUQoiTJJdBlco29ZGU9YeQoBUEVFkKiyq5mb1%2B%2Fym5sI9CnEL%2Bqh5KN%2Ftwhf1j1FmVVCsOWb4h5D6JR6yc18ZH7ye4oyq%2Fny3xKz%2FDmYsFBQIpCPDefzIQIOAGkEK8jSIiqzw2lkl%2FYacb1KgLLjdqFHIT2jLIbI9MTNa7TyiGtcfrORsUmoSeGKodhWBrd8jdGENRKwXS%2FL6%2Fy05et5j3t%2B9jIZ9fYuszNvR9txSIFDYgWOgYIRgXwIAIV1yssrMHZsK2bNmoWWlhZUVFSlnRPodzioOGYP9VDIR%2FOYbcQkQGYnNRsRWiBUrzFHD319yv7Exn7FyRCRGWoyQ065EAErDSqTIOheYwTiQdbCW7cEz6PMVv0MUrbX3eMeEi1tH2eDwJ028iyzli8LAIviYMRAQYhAPgRANm5rayu6urpw%2FPhxrF27DsOHN6GkpBRlZRU2MZBPB9HEcP9EgEjITvoiLJJzETA7rCBfIntzVOBJjkoHd%2FH69TKSvdzI2JNQPfK1i4BHmTUytufrcY9HfsXFLAIS6%2FypYF7DWJRsE3oRuH37Nu7cuRPohvOSxJcuXQra3P6bb77BBx98gBdeeBFHjx7F1KnTUFpanhsRcPGI9Rg9kZwVIpHg1EjNzzVJICthD9U7l2nrn0GIgEe%2BrvUQ5VHKrJXPVQT0ezzycwsHeQqXlm%2FSnkwebIvBg4HQi0DQAiDBPGbMGDz11FNi%2BYdDhw6LZSOOHTuGc%2BfOYe%2FevaAlLCoqku8LZDwS0MlJfLePDAQx2sI4xuhBDRGlvSbeo4SBDEKVZGfcq84XdCDRozyhpAmOsJHLb3Yytuch7rHV1Tivhr0cE8NeZbalo41AvO4xRyrWCEgXCeW7tIuzzIOno0uc8ye3qY6BUIsAeeVz5szNy8TTggUL8NJLL%2BGxxx5De3s7amtrMXv2bDESoGUjVq9ejaqqGms0UFNTiwMHDqL%2F4SBtPoDCQJrnbZBrFxK9SszeipsbIE57jRQXM96vCgiBwBCCZPr28yZh071Wvs7f%2BicCVG4lDTNtWzjIq8ypRMDrHtOLF%2BmbNqC5ELd6sggwMerEGKXvoRYBelInX41BIkACcOrUKcycOVOsIjpu3HgcPnwYL774Inbs2IG2tokYM6ZFCMGUKVPx8MMPY%2F363K9tZCdX9w7q55p82S6bfDKpRyb3ZFNGvtcdg2yXwWGXUItAPkFGE8IHDx7ExYsXcf%2F992PhwkVYu3YtaFG4d955RywpTaRP8wSPPvoYXnnlFfFmcUvL2JwLlR%2BS83NNPu2XUV4uIaa06WijgrTXc1w%2F5%2Fhkmw8O8pftyCJgkkRpaZkYATz44IPC83%2F33Xfx9ddfo7e3FydOnMDEiROxceNGIRS7d%2B%2FG8uUr0Nw8Ujw5JI2Zq08%2FBO%2FnmlyVJ1fpUJntj6eq8xJpOpYQDON%2BW%2FiGSZ5JnjGQFQZYBBQA0TsC48dPECOBl19%2BWYjB5s2bUV8%2FFCQSVVVVqKmpQXV1jZgkjsVKxOOhuSJJTieNEChtxbZiWzEGcoMBFgGFWOhRUXongEi%2BoaEBQ4c2iFVBY7HcGJtBy3ZkDDAGwoYBFgFFBMLWOFweJgzGAGMgaAywCLAIZBVPDBqgnD6TIGMgWAywCLAIsAgwBhgDEcYAi0CEG589rGA9LLYv27cQMMAiwCLAXiBjgDEQYQyEWgRovZ5CUFIuI3t8jAHGQKFiINQicP36dXR25n5ZhmwbS646qn9mmy7fz0TCGGAM5BsDoRaBGzdu5G2D%2BXwa3vnmrLnxSoSHpPm0P%2BfFRMsYSGIg9CJw69atAROC6tE1aN3YivbuaZjUNRH1E4eK8NTw9kbMf3AOxi8fhxnbO7DggfmobK72HbrSl3wwVrpkIeCOmeyYbAu2Rb4wEHoROHXqdF42mFcNHispxbjl47D16iYc%2FuwAjnzZjSNfHMSsXTMxYlYTVj21Avs%2F2IOdb2zF7p6d2P%2FBXsx%2FYC7qJ9T5EgJdBOQSy%2FZljrkTqG3CfzMeGAPBYKAgRIAav7u7O%2FARgYzxD%2B8YjvWX1%2BL%2BD3Zhwel5GLW4BS0rxqNxehOGTW3AojPzsevaTnReXoutr21E%2FGfbMXX%2FVNS0DMmBCBhr7vfEzW0o5baQbvsSW2v9J8FhCzX1JhBP9Dr2BHCkra3Jb9v4xdpG0r6%2FgVjEzXZf6sXg9HX9rUXglIXh%2Bvp6fdmPySDZ3mwLtkW2GCgYEciXEFA%2BM3d24OiX3Vh%2BbgVqRtWhpLwUJeVlKCkrReWIIZjUNQUbX1mPBScXYOXjK7Dx5fUYvXwMyodW%2BSIxr5GAQYyGCPT29hgbtJvzBAaJqkRrbtCiCIEQAGWvYsfOXeamLs601bw80u1LhqssQrfyct6jAtNR9vYEEnFtI3qqZzzhy35q2vw3kyBjIDsMFJQI5GPD%2BdKaKiw8vhiHPzmAjm3tKNYWj5uwcjziP92B4788jKNfdOPYV4fE3%2BsurQaNIPwAUhcBw3uXBG%2BKQKJDSUvdHF1pcOGJy%2FvcrxFpW0LhlraSnpyYdtnpLLnDGF1vjFIsb14QeA%2F0EYRhC5drZT628ruUQ17HnwoW2E5%2B%2Bhhf4x8nBSMC%2BRAAAg6JwKITS3D8q8OY3TULxbESWwcsqypH68qxWP3sCszo6sDSBxZjzTOr0TC1EaUVpbZrvYBokL6ytr7lUVPDGUTtIFglLJRMVyF%2BD0IVXrgmAra0TYK1vHu5FaNSJl20DBFIjgxEeTThsMoowj1SqHRgmiMI237K%2BjX83bIli6Gv%2FsX26l%2BfKQgRyJcAEHhoj4C5e%2BfgxDdHsDKxAkPGOid7K4bVoKGjWYSK6tuGoqGjCSXVFb4B6iRVtdEyFAEPsk0vAoanbvPiNUJ3llcRH0lM2j1WR%2FQol3We7rfmFnp829B2vywDf7L9GAP9xkDoReD27du4c%2BdO3jacJ3JpntuMLVc34tjXh7HzjW1Yen4RVj%2B1ElM7pwoDx0pKxPxArLQEsTLjb7qPJpb9kJOTVNOIgCBJzfO2yNP0sj2uobySoRwXgXEZQQjhyNVIwKNcTjsZZXP%2BrtqG%2F2b7MAZyjYHQi0C%2BBYCIvKS8BCMXjBRPCB394hCOftWNfdf3YPqmaYLo%2FZK9V2P1WwTMJ3T6bCEhgzSTj5Ua3x0ePYV3UoWDdJIW3%2Fts8X1nedOMBLQ0hRCpZZcTw%2FEeJENTLAJeeOHfmfiDxECoReDatWt5HQGohqYngqqGVqO%2BZRjqWxsxpKkW5f0I%2Bahp6X87SVUFuUGGSXJMntPj9kkBkNeYQiDj%2Bj1dSB8OihnXyHtoBKCFdpzl7Z8IUP0NIZDzIOaoRgqOmbezPrJe%2FKljiL8zJnKFgVCLQFNTk6%2FwSq6M4ZoOTQybewlnOwJwTT%2FgGKaTwLnzDEQ7cJ6Mu7BiINQiEFajFUy5%2FEzKBixCBWMrtsPAO1zcBgPSBiwCgwh49pALhV68Hs1kr4zFiTHAGDAwwCIwiESAQc3ExhhgDPQXAywCLAIDMgTtL1D5eiY3xkAwGGARYBFgEWAMMAYijAEWgQg3PntWwXhWbFe2ayFhgEWARYC9QMYAYyDCGGARiHDjF5K3wmVl75oxEAwGWARYBNgLZAwwBiKMgVCLwIQJbQzOCIOTPb9gPD%2B2K9tVxUCoReD69evo7OwMnRDQ8hFuh2pY%2Fps7GmOAMVAIGAi1CNy4cSPwfYUHqpEcb%2FdaK31yxxmoNuF8GXtRxEDoReDWrVsDJgTVo2vQurEV7d3TMKlrIuonDhWjkuHtjZj%2F4ByMXz4OM7Z3YMED81HZXO1zxGKu9KmRfjyRQLsM%2FWireGYMzFylI8vFnz7bmMk0Y8wyxvKOsdCLwKlTp9Hd3Z1XIYiVlGLc8nHYenUTDn92AEe%2B7MaRLw5i1q6ZGDGrCaueWoH9H%2BzBzje2YnfPTuz%2FYC%2FmPzAX9ROcu5A5OoO21r7jPHWCXJF3rtLhjpn3jumKC24HbocAMFAQIkAdIh9CIOP8tGH8%2Bstrcf8Hu7Dg9DyMWtyClhXj0Ti9CcOmNmDRmfnYdW0nOi%2BvxdbXNiL%2Bs%2B2Yun8qalqG%2BACpsZ2j234BVE%2FPMJG29r5t8xhrX2IjbVo4rod2FJN7BNCnGHm47AMg0k0uNCeXnrbtXaDsMuZGTrZr1f2CSYSsMrjsjBYAoN3Kx7%2FxyIQx4I2BghEBasR8CAHlM3NnB45%2B2Y3l51aIfYRpg5mS8jKxpWTliCGY1DUFG19ZjwUnF2Dl4yuw8eX1GL18DMqHVvkQgeQmLp6bqLh48O2JHiTaZUPqISXje2%2Bveo3biMKfCBBxJ8um5yXLYHwaApAUEdovOBGX%2BwYrxB9PKOW3p8EdlO3BGBg4DBSUCORjw%2FnSmiosPL4Yhz85gI5t7SiO2RtnwsrxiP90B47%2F8jCOftGNY18dEn%2Bvu7QaNILwDWbFs08SrpmXiwg40rVdY4pAosOev%2B0aStunCGjzFcZG8AqhWx68MfJwHdVoIwxH%2Ba007Pbl69gejIH8YqBgRCAfAkDgIxFYdGIJjn91GLO7ZoldxVRQllWVo3XlWKx%2BdgVmdHVg6QOLseaZ1WiY2ojSilI7CfshOiJqK1xjNr6DvI3f9bBLMiRkiICDjB3p%2BBMBhyi5iQfVTZRdGQXY6muOINTwkO18foGutiH%2FzbZnDCQxUBAikC8BIGDEYiWYu3cOTnxzBCsTKzBkrHOyt2JYDRo6mkWoqL5tKBo6mlCSzf7DwmtWPG1X8rZv%2Fm6fPA6jCJggs0Y8XmKRBCN3TLYFYyD%2FGAi9CNy%2BfRt37tzJ64bzzXObseXqRhz7%2BjB2vrENS88vwuqnVmJq51Th6cdKSsT8QKy0BLEy428Cb%2BZ7EGthFV0EXEIrYlRgTdhmIQKaNy8mpvVwkHaN1VF18fL09I3yOUcY%2BQe8VXbPsnKZ2EbRwkDoRSDfAkBEXlJegpELRoonhI5%2BcQhHv%2BrGvut7MH3TNOtN4Yw7ChGnRrKOyVWddHWyFd%2FVkUEKEbBtMWlcZzwpREA3xEfdhlI%2BnZQMLRnXWASulcW4XvHy5cRwvAfJNDzKx0Tc%2F%2FAh24xtlmMMhFoErl27ltcRgErs9ERQ1dBq1LcMQ31rI4Y01aI8m5CP1XCSeNVHOBUSFdeZZK3MFdjmA2gEYBsteJGsM50k8Zt7EAtST%2BZvPCLahUSvUj5VtDQRIJtJ4TAeBzXDWlKozEdELRGx7BAtb0vFFv%2FNbR8mDIRaBJqamgZe9WMlYnJYvkMQpsYLoiyGCGhPGTFxDzwOuQ24DQLCQKhFIAiS4zRTe2EsAqntw%2Fhh%2Bww2DLAIBKSuhQoUFgEmuULFLpc7M%2ByyCLAI8DCbMcAYiDAGWAQi3PjsOWXmObHd2G6DCQMsAiwC7AUyBhgDEcYAi0CEG38weTNcF%2FbOGQOZYYBFgEWAvUDGAGMgwhhgEYhw47PnlJnnxHZjuw0mDLAIsAiwF8gYYAxEGAMsAhFu%2FMHkzXBd2DtnDGSGARYBFgH2AhkDjIEIY4BFIMKNz55TZp4T243tNpgwwCLAIsBeIGOAMRBhDLAIRLjxB5M3w3Vh75wxkBkGWARYBNgLZAwwBiKMARaBCDc%2Be06ZeU5sN7bbYMIAiwCLAHuBjAHGQIQxwCIQ4cYfTN4M14W9c8ZAZhhgEWARYC%2BQMcAYiDAGWAQi3PjsOWXmObHd2G6DCQMsAiwC7AUyBhgDEcYAi0CEG38weTNcF%2FbOGQOZYYBFgEWAvUDGAGMgwhhgEYhw47PnlJnnxHZjuw0mDLAIsAiwF8gYYAxEGAMsAhFu%2FMHkzXBd2DtnDGSGARYBFgH2AhkDjIEIY4BFIMKNz55TZp4T243tNphhzIKYAAAANElEQVQwwCLAIsBeIGOAMRBhDLAIRLjxB5M3w3Vh75wxkBkGWARYBNgLZAwwBiKMARKB%2Fx%2Bk4jkYbCK2ewAAAABJRU5ErkJggg%3D%3D%3B%22%20vertex%3D%221%22%20parent%3D%221%22%3E%3CmxGeometry%20x%3D%22-210%22%20y%3D%22547%22%20width%3D%22157.92%22%20height%3D%22153%22%20as%3D%22geometry%22%2F%3E%3C%2FmxCell%3E%3C%2Froot%3E%3C%2FmxGraphModel%3E&lt;/span&gt;&lt;span style=&quot;color: rgba(0, 0, 0, 0); font-family: monospace; font-size: 0px; text-wrap: nowrap; background-color: initial;&quot;&gt;%3CmxGraphModel%3E%3Croot%3E%3CmxCell%20id%3D%220%22%2F%3E%3CmxCell%20id%3D%221%22%20parent%3D%220%22%2F%3E%3CmxCell%20id%3D%222%22%20value%3D%22%22%20style%3D%22shape%3Dimage%3BverticalLabelPosition%3Dbottom%3BlabelBackgroundColor%3Ddefault%3BverticalAlign%3Dtop%3Baspect%3Dfixed%3BimageAspect%3D0%3Bimage%3Ddata%3Aimage%2Fpng%2CiVBORw0KGgoAAAANSUhEUgAAAYEAAAF1CAYAAAAOWlYrAAAgAElEQVR4Ae29aXAcR5Ym2FU1U10z1jVTM9Y9023d07qAxA0QAEEQBA8QJMEb4H3fJ3gfCR7iAd4SJVI8pdQtsairROouolQSJapE3SrVwWp09dbucqfXrMaWbW2mbtjuj1nbH9%2Fa8wiP9PCIyAxkZiQiEY9mwURmRPjx%2FPPve%2F48wv1PqqqGYMyYNtAnH2wDxgBjgDEQHQwQ9%2F8JNTj9UVwc44NtwBhgDDAGIoQBFoEINTaLPDs5jAHGgI4BFgEWAfb6GAOMgQhjgEUgwo2vewT8nb1ExkD0MBCICEybNg2HDx%2FG6dOnMz7ofkqHQRk9UHKbc5szBvKHgUBEYNmy5bh69So%2B%2BuijjA%2B6n9JhMOQPDGxrtjVjIHoYCEQEVqxYgTfffBOffvppxgfdT%2BkwKKMHSm5zbnPGQP4wMChEIN7Th74%2B5ejp6pd40P29iY5%2B3eMFUqMsPYi7zTXEe9DX14tEezYN3IFEbx964jEUU3q9CbS75VXAv6W0oc965SINrzb2%2F3v%2F20qU24FfJR2f9ZdlbE%2F0os%2BRXib4y7wMsiyD6TN3ds2kLXJ7T2Ai8Mgjj2DJkiVoahrR74Puo%2FvTjwQMYOogjyf6R4zU8XIlAp5Ab0%2BgNyeErXTGMIhAGMrQT2L0bKNU6WRUz362FeWhEbYhZoaDI4Q%2FVRldzuWCrLItQ0b2dqlLYOlk1LYxkG0D54082CEwETh58iSmT5%2BekXdN99H9aUWAiDVrzzqG%2FIhAR4489n4SS9AgyrADBdahg6pvRvXsT1vRtdookfLso1FlF3r6zNFfP%2BuXtQjkoAyhb%2BuM2pa8cWoXj1F%2FP9tpIG1U2CLgs3OIjpAiXGQXAWpYrTMKsbE3tp6m9NLsaRnDNv1au7cnicL4NMJaWv4%2BAWXk3SXCRTI8Jsolyi%2FDZfZ6FNvO9WnhpdRlo%2FxkPuJT8WLtdVbrkzpN6gy6DTOpl54GpZtpmfzXs8%2Fhyfvu3EREiv3s9%2FkXAVtZexOIu4SDvO2QKszgrwzS7rY8bCNg2f5GeobIpe8nol6afUQeStq2PPU%2B7Gh%2FQ1Rt9iKOUPKwp2c%2FJ9uHrin00UDeRSBWXA46pBHdPn2PBJSG9WoIoyFV4jPJVmlsCVyjLOlFwJFmewIJitG7EJjj2mI9f%2FO7AloBTAXcbjZy%2B80AdJJwjbxVYtfzJmLsUeYo9PM%2ByubiRYl81fJb3iTZKH2a9vYwREGdS%2FFTLz2NbMvkNv9ilCM1ttzaye03SssLw4bHmX4k4MCNsLudvFLbITciQA5Bsi7umOrtVXEnBTqFLR04M9KVzle6ejnaSumzWbUtlUvhEre2DftvgYjAokWL0NW1C2PGtNjIvvTeIZhcsRXrGi5hZtV%2B1Bbbz0tj9UcExD2KN5sEHwHahdDJq9Y8ezthuNxju97wYCT4ZJnlZ9q0HPkbYLaV25Zfqo5pPydIwAZIl7I6OpM9DXuH8FE2R3ou9jOJ37BZ%2BjTtNjRFoJ%2F1sqeRfZnsdvGPLYmLdJ9UXi9M%2BRMBtzrqtnO7xk6m3uWke1OV0cCRE4Oyv0nnxKX9ffVTrey2PqKdEyNntV5pyu4Lw7IeqlCZv6kOj89Ru7edtf6Yh%2FQCEYGKikoMqRqG8pIaSwSEAJRvQ3zkT9E97ib2t36IBXUnUFM00rpGGqbfIiANRY2pDunEd63RxLV20KQlDBVwnmkmO4FF6J7XqvmrYDUBIPKTncY%2FKOz1oPvUfMx0qEwaaA0vSQntWOd9lE1PT9RZSUsJw6kiYCM8rb56PfTvfupluycHZXKIgEgzPbYkplN%2Fkp1TtXcaEiNMqxiV%2FUGOlKWAprVDKqz5KIPLSNiot4pDF0z5tKXapgKzfuvlmb5Hn%2FC8Xq2HtBX95oYDeT78n4GIwKjyuVjT%2BDSWDT2HxpIpUAXg0PhPcXjCZ%2BJYOvQMhhSNyZ0IWJ3B7FA%2BG1MFlyvBqB3MM02jsW1peV6rgsmlU2ikmJpAkiCz5e0idiIdKpNF8lQONVykP3bqo2y29Mz7U3aK9Gnq9dC%2Fu7aRVg7bPZ7tIG2XvkzBioDhsduEUSFyo75pvHCPOjrJMlPCMrDiXUYX%2FFt1SIN3j7I72tlqY629PO8329fPeatPpMKwWg8zbeqr6r1WnSW2wv8ZiAi0Va3B9qY3cf%2BYD7Bh%2BGWsqEuIEcCBll9gw7AXsHnEK8GJgDpZ7EWmKqk7vBeXhlZB5JWm2fg28vG61pa%2FBmhKx%2Bu%2BNACz5S2u9aiLBK2tHAZYBWnI87YwjgJ6Zf7CQY5py56%2Bvno99O8OcqC6WgRhlNN2Tw7KpKfv2UYuNvUj4rbyOtqZ2jGNCHjUkdK1YtYe1%2Fgpny8hMvuSlZ%2Bsh9p%2F%2FGBK3uewpYnnOD0VqIhZunqlO69hp19tS%2FfKEYksd4F9BiICE6vWYkXtY1hc8wi2jngVB8d9jD2jf45Z1QfRdN9cLB96PjciQI2rNYAR2kgCRHQCFTAmCK2QjUMEDJJKNqzRAdWnGBxpKpNMemd2XOvIPz0p%2Buukhjep1istWeqdQ3xXRwY%2Bymbr4EkCVu0lJoN75Lsb6dN0s2G%2F6uVoUzM2ruOgH2USImC73yPNXnVS1BROP6SQkkx8iIAkYEvApUeriIC8xlaPDiQsO6Qqbz%2FKYBMs475k%2B7m0v1e5XGwpsNHrfAHOtZ8p9XKcV%2FpsNm1LfJOsWyr7hfdcYCKwsu4JrKl%2FFntGvy8I%2F%2BDYm1hWewFjipaDwkAUEso%2BHCQJWo1BJwVAkqchDMlr9EbTSUd6Pcbjjz2IC3K0p2uASqaZjOc605JPPshrdZJw6RQ6OfshERfiSysCMmYs4%2FZEIDavyE%2FZjGtsczFWp3arc%2Fo0dRvq3%2F3Uy3mPJO3MypR8qslOqumwJTGY%2FpOwnMSR%2FXp%2FBGwrozk3JsqnOUpkGwPbxqfeH%2Bx5S%2FLyVwbD7vbHlJMOFaXl0v4mvn3ZMkXfSFcv%2B3nV1u4YTl8esomdF9xtJ20Yzs%2FARGDnyLexb8wNrKh7FDMrD2LriCs4MO4jbBvxhggNSRGYPXEVHnnkDN566y3r6OnpwZUrV9K%2FLOaTHAuxYbjM4ewwgbZLytFAYdjDEIHcLMHiamubkzKwNiGR8CegA1tOVzsq3BmICAyLTcacqqOYXtGF2qIxKC8egvEVK4UQHBr%2FCeiQIjC6bjra2zuwePES2zFnzlyx3ES6CvD5cAOM26d%2F7SO8Vc1zLyQbBisChsceBuJ1G2EVUjupZQ1EBEpi5SiPDUFZcTWKi0pQVFSM0uJKSwhIAA6M%2FRjzao6huqgJZWVlKC%2Bv0I5ylJSUOp4cUgvPf%2FePYNhebK%2BgMRCUCAhxNENcQdchaukHIgJeRiQhaC1fhnnVx9FavhyVsQYUF5UKkfC6h39n4mIMMAYYA8FhIK8iQA1JQlAeqxWfxcUl7OkrsTkGenBAZ9uybRkD7hjIuwhwQ7g3BNuF7cIYYAwMBAZYBNgT59EYY4AxEGEMsAhEuPEHwuvgPNnbZQyECwMsAiwC7AUyBhgDEcYAi0CEG589snB5ZNwe3B4DgYGCE4GmpibxJvGmTZuQ6bFmzVq0tbWx98MCyBhgDEQeAwUnAh0dHbh8%2BTLef%2F%2F9jI%2FXXnsNGzduinzjD4TXwXmyt8sYCBcGCk4EZs6cJdYV%2BvTTT5HpQWsTbdu2LXoiIFcJ9VyozCc4c5UOe6HRwyC3eejaPFAR6OzsBK0BlEvlj4QISJJVlwXOReeR6YZVBGT5cl3vXNiO08hpP84lJ3BaPp03DwwHJgIkAN9%2B%2By0WLFiQU%2FCQCJw6dQorVqzExImTMG1aO2bPnoN58%2BZj9uy5mD69Xfw%2BYUIb3I65c%2BfhyJEjoR4JWEvYRowMo1pvJrHsSIztl539AhEBEoB%2F%2BZd%2FEWuWByECx44dE0RfWlqGouo63DV%2BLu6evx13T16E%2B4YMA%2F1eVlYB2uu4oqLKdowY0YwtW7amEQFj7XRac52207MWr5IetPRYxTr86nriyrrkco1%2BeY9QYTVd%2B7Vy275kXsk139VVE%2FXz8j51D4SeuHvaxo5JlK5cS10tTz%2FqadVfpmOAMJuy6feS7VPV275GfXadgEmE7RdlDORcBKQA%2FOu%2F%2FmsgIjBt2nRB4lUjWnDX0r2ovnQLQ6%2F8H6h89tcY%2FvI%2FoO7y3%2BHujQ%2FjrpphYhVSEoPy8krrGD68CZs2bfYtAr20i5FF6LTrVi961e%2F0t7X0r518k%2FdJoUiSbvKcJHvjmlRk6HaO0jGEIH3aqUSgX%2FV0EYFsy%2BZ2vyECXjZVd0BjEosyiXHds8N%2FTkVAFwAiqFyPBCorq1A9egJKt5xC7ROfofLM%2B6g%2FfQ33zN2CogMvoPj8xyh74E3UHHgOd9c1o7S03BIAEoP%2BioAkeCtUoXioFnF5hm2SxOwgaikctEmGEJWkV23lpaabinhFWsm8ZJmNbfMUz9%2BRhvMeK%2B9U9dTT0b%2BrO4v5LZu6y5lrvaXYyT2YDfFMjoSy6whMJGy%2FqGIgZyLgJgBBiEBxrBTls9ej6ulf4r6jV1F0%2F%2FOouP8ZlFXXoWZZF4YcfxX3rjiA4oufonjzacdooL8iYJGMC9FZJKuQlkqiBrmrZJUk3VTpWmn4SFfkoRGtZ9qOOvgrj6OeWjpWefURkjVK8pePlY5bvZXf5BaFVHc1ZBTVTsz1ZgHLBgM5EQEvAQhCBO5pHIuirsdF%2BKfi0Ztofv2%2FY9Sb%2FyeaL32DUVf%2BV4z%2B6f%2BFuud%2FjcpnfoWak2%2FgrhFtttFAoCJgefWSnHTy07%2BrXm3qkYBFkJ57mvpIWyNv%2BzyC2ZEc1ygblksi1q7JSdk8RgJW2jJvMbeSDBGxCDABZkOAfG8MWYsACQA9BaR6verfuQ4H3TtuNu4%2B8BKKO0%2BgZE4nig69jJLle1HZPA7l8zej6PArKF66GyULtuLeo6%2FjnlkbxUSxnBcIUgQswpKhHossZSjDB1GrZKgSvkNgjM7fnkgg7ph09iB0qzxScPyVJ91IwDqveeb9KpuPejtHONKuTIRMZoyBTDGQtQjQewBE9F5HXV19Th8RvW%2Factxz%2BgPcs%2B0i7p63FXd3PYmieVtE3L9k6hLcc%2F%2BPcffCOO5dtg%2F3nvsF7lt5ACUltH2lMTmcFxFwCYsYBNZP0jXTST1B6px0dpKlSfpBiUBx0jNXHYA%2BS8SCqDdPDGfa6fk%2BFgwVA1mLgJpYPv6%2Br20eys5%2BiIZX%2FoD6F%2F4ew1%2F776h6%2FAvcd%2FwtVF74CCOu%2FG8Y9tLvUf%2Fi36P2ma9xz9zNeRsJqLFq4zFMnfz07%2B7hILKjNels865dyFaOOop9pB2YCFCnyrJs5oss7vW220MIjVVv7tD56Hecx%2BDFWcGJwD11zSjblcDQxz7CvR1rUbXzPGrPvoe7lh9A%2BeGX0fDQGyiatgyV3S%2Bg7tx7Yk5AfUzU30hg8DY4d2ZuW8YAY0DFQMGJQFGsFEXtK1F09iMUxZ9AyepDqDj6Ku6asR73dD2F%2BzadRmzFPpRf%2FBhl645iWsdM7N69B11du8Rx%2BPARPP7442neE2CQqCDhvxkPjIHBi4GCEwECY1F5Ne6btwWVT%2F8STVf%2Bd1Q99imKj7%2BJsqd%2Fhapnf426Z7%2FBvetOoL65BUuWLMWePXuwe%2FducezduxfxeBy0GikDe%2FACm9uW25Yx4A8DBSkConHLq3DfhLm4Z8%2BzKH%2F6V6h%2F%2BQ%2Boevob3NX1JO6ZshTFVbXiHQF6uaympsZ2VFfXoLy8nEXAjMNzZ%2FHXWdhObKfBiIHCFQEisNJyFFXXo3hoM0oaRiE2tNn4XlbBBM8EzxhgDDAGfGCgsEXARwUHo3JzndgjZQwwBnKFARYBFhL2lhgDjIEIY4BFIMKNnytPgtNhr5QxULgYYBFgEWAvkDHAGIgwBlgEItz47L0VrvfGbcdtlysMsAj0WwRK2Gvqt824w%2Baqw3I6jKVcY4BFoB%2BEZrxzUCvWIsp1Q3B63LkZA4yBgcAAi4CLCBQVFVvePu1XPHv2bDzyyCN49dVX8c477%2BD555%2FHunXrUFdXZ12XSeNZS09bq47KFUGj0xmEDdIsBqcuKhf04nFGXtFrh0zwy%2FcMjn7KIuAiAhLc5PmvWbMWTzzxBPbv34%2B5c%2Bdh7tz5oKUnLl%2B%2BjAMHDqChYVgGQiBX3NTIJt5j7hdcAOCi%2FQ1sG71kVubUImDaSROJeCKB9hTtJtuPPzNrE7ZbtOzGIqCRSWPjcGzatAlPPvkkXn%2F9dXHE410YNmw4aLmJqqoa1Nc3YNmy5UgkHseGDRvE8hT96TiC%2BHJAoP3JM%2BfX5kMExNLXcgOcaHXMnLeXhnNOn%2FEkMcAioHSO1tZWnDx5Ek8%2F%2FTR27oxjy5atWL16DUaOHG1tSiM3p6mtrcfevffj%2BPHjaG4eCQoh3XdfkfiUxnX%2FNNb9tzZ%2BUfLXr3eEi2weseEl98TlqELZUF6kme680QnseTgJ137e2MkrVXjGfr0zPdu9vQnEE73os9VL7Zz%2BbOWdp7SB3GuhBz09fY78xP2mKFP59C0r7enbdzOzn9Pqq%2BwGZ%2BwvodaN%2F9bxzt8HBhMsArQqaVExamqGYM%2BevTh37hxmzJiJurqhIKIfMqQWdaOGY86%2BBWjf0I7WpWMx41AHhk8fgVWrVov5gVOnTmHmzFmoqKgUaalzCg5gC2LQwkAuQmCQi3qdSfYWYUryTxKPIFhrhJHufAwq%2BYlyamVzlKE9gUTcBKrLSCBdevbyKXsXW3VydgKjDE5ilnZNnadhg97eHiTavcptXCNFWReBVDZImbc%2BioknkmVwaW9ZH%2F50YoBtEqxNWATMDtnWNhEPPPAANm3aLEI%2B0uOnz7qxw7Hy4hosPLAAUzunYtljSzBq3ii0tLRiw4aNuHDhAl555RVs3rwFVVVVqecINKJ1Bzh5rklyt64RxCKFwSS4hLIkdr%2FOu%2BWhEmIaL9whAn7Sc9ZJCEMKERB1F%2FWikY4uBunydLGR2IFNKYfNZsYOZsmRQCobpMlbS9dqQxaA1P2D7ZN3%2B7AImKCbN28%2BTp58CIsWLbaFfppnNmPds2tw%2FKsjOPb5IRz5tBvHvz6Mrrd2YMrqKWK0MHz4CDFZ%2FOijj2L69OmpG9GPCHheoxKPStimpyCIRxJcmvMiD4NY7fsCm%2BEOzzJ4eNTp0vMgReFNpxMBSQwyD3m9%2FG49XZWsj%2BHZu9jA3LpTEr2ev20kkMoGPvMm28pRBgtBsB4t2zcz%2B7IImAQzfXo7HnzwQaxcucomAqPmj8LaZ1Zj%2BZmVmLB%2BmjjmHJuHzhfWYdqGqda1CxYsxJkzZ8SEcUow2ojao9E8ySfXIiBHFS7l8CyDeS2dt0JPMrTT%2F%2FR0Ek5pO2or1X7pymjue%2BwgYavsTpHonwikqK8ULlFeEicf18p7%2BDO1I8X2yal9WATMOYHGxkYcO3YcJ06cQHPzKIvcSQRWPL4M7ZvbUTmkRhxjFreI31QRoEdJE4kEFi5clKaBDOLxngzViE4FvM2bdhKYjSDdCFAlUPVvNQ%2F5d7rzFpGaopDueo%2FzvsJBskziUwnReKSZFBIXG1lp9CIRT6BXI2ebCKRKP9U5W3nJPkY55OgjWT4X8XXcy9ewvYLFAIuA2elKSkoxZ85c8U7A2bNnsXTpUowd24rRc8Zg1ZMrMG%2F3XFRWVgtxGLtsLFY9swJTOicLwVi%2FvhPPPfe8EJCmpqY0IkANahCZzZOmcijvCQhytBGUTiQuBGcjpnTnjfi33UPtQKIn%2BQy%2Bowz6xLCtfD7Tc4wenE%2FrWJ2e6iNDP2Y7iZGDkq%2BjjES4Vh1cbGCmI8i%2Bt9fxJJD4XZlncaSv2MBxTs1baUspAo4RiVkWq7783UffCZYQo9gWLAJKxysvr8CUKVNx5MgR%2FOQnP8FjjyUwZ9kCLD65DJte7MSYBWMxbOIoLDuzQoSDpq6ZioMHu%2FHGG2%2Fi2LFjGD9%2BfD%2FeGTAIyhaPVwmy2Hx6R4l32z1JF4LrpwgQ4A0iS8bS7Xno5%2BV8A3VEpfwKUadOT7mH6tXTZTyhpNxv74SmWCo2sIuWQQjeebrYSLa3CCWp9Umm5d8Gun2UiWvRFt52tdeTiY3tMXAYYBGQpGB%2BlpWVi8dCKTw0dGgDKiqr0Di9CcsvLMe%2B9%2Fai%2B6MD2PzqRoxfOwEVtTWora0DvWBGj5KWlpayJ6PZkzv3wHVutj3b3g8GWARSklYxiopiiJWVompoDZY9sBTrL63F8BlNKK0sE4RP7wSkfC8gZfoMUj8g5WsYJ4yB4DDAIuCDpCXJz98%2FDysfXYmqUbVM%2FD7sxh03uI7LtmXb5goDLAI%2ByEx6%2B1M3TMHMA7NRMbyGwz4%2B7JYrkHI6THiMgeAwwCLgg8ykCJRVlaO8pgKxUt5YhjtlcJ2Sbcu2zScGWAR8iEA%2BG4TzYgJgDDAG8okBFgEWAQ5tMQYYAxHGAItAhBs%2Fn94G58XeLWMgnBhgEWARYC%2BQMcAYiDAGWAQi3PjsmYXTM%2BN24XbJJwZCLQITJrSF0kMx3htIbkafzwbjvJggGAOMgVxiINQicP36dXR2dg6IEMjHQvVPaXxaXmLEiGZMnDjJOsaNG4%2B6uvoBKa8sF38yQTAGGAP9wUCoReDGjRv49ttv8yoEkvTTGZHWCzp06BB6emjfWuO4fPmy2JQm3b3GSpjJxcXkInL6wmXp0hnI8%2F3eByCLsJtztU7u5APZ9pz34MJf6EXg1q1beRUCKQKbNm3CW2%2B9JY7nnnsOCxcutHn4tGQ0bUr%2F6aefWsebb76JFStW2K5z6zDuBCpXzCyMzUfc6zC4Oodb2%2FFv3MaDDQOhF4FTp06ju7s7b0IgRaCra5eD3EkITp8%2BjXg8jtmzZ%2BdYBKhzmUstey6tHJ4OyCIQnrYYbKTE9ckvtgpCBAgU%2BRKCVCLQ0TED%2B%2FbtA%2B0iRttR5nYkYDa8y5aJgnCtNfXta%2BBTqITCSLZrtH0JyH6287ZN7OWa%2B%2Bpa%2F%2FY86H7bmv29CcQTvWI%2FALXDZpuH%2Ff7k3ryyjlZe2lr9bpvzyBBbn62u%2Be1cVnmzCIVFOY377huK%2F%2FyfL%2BLuu8emHV1H2U7Z1r1gRIAqmg8hkCKwevVqXLp0SRznz5%2FH7NlzQJvO1NQMQSXtMdA4HDt37hTn33jjDfziF79AduEgk6BsG8OY5K2SuiYSkpyT8wnO0YQgV880JPkniV%2BkqVyvf6cd0ATJKiOWbPMwBEAJhWk7eCXrRzbpQaJdErpWX81%2BxfGEcq28hz%2BzJY583E8C8Cd%2FAvzpn%2F6eRSBAR6KgROCJJ57EnTt3xDaQQYOQiJ42laGDnvipqKiwAZG2o6yurhHnN2zYiLfffjs3IiC2npSETPME8m9JXAbpya0KBUErZCzsYiPCdGkY6akka%2BxVLAnZ7X5zZGDl63aNWk4%2FeSQ9f71tqY628ukdgkRJipaouyy7tBl%2F6jYthO9%2F9VcbhQiQEPzN3yyx9b9CKH%2BhlLFgRCCfAuDVeOpksZw0pt9IMIYNaxQH%2Fe11v%2FxdeL0WgWoEpRK49LitUFDyiSJVBJwEqZBy2jRUsjbLopbBg1Rtdcg2D3G%2FN3G7iYAxckjawxIBOa%2FS5y0qsh34U8OeLq4D%2FL2oqArf%2B94%2FCyH4sz%2B7nrZfcXtm1p4FIQL5EIBp06bh8OHDYuKXJn%2F1p4EIYOpksXwqiH6jczKMJD9TAdJGoHpHI0KUXm0acqQ83AjS2MjeHEGkTSONCHjcb6uDxzVJG2SWh7zfXkcSuL6kjch%2BlL%2B0mbSnEC8SCW9xkenzZ2bkkQ%2B7yZDQd77zP3HvvSNYCCS%2Bc%2FgZehG4fft2XkJAy5Ytx9WrV%2FHRRx%2BJg%2BL9Y8a0YNWqVeKgv71EwA%2Fxqx3GRqC2xjQITnr5RlhGDwfZOywRJG3YrqZvxOxN8lO9elteMp00BO1xvy1fj2uSZcosD3m%2FTQREXnZiF%2FbURUDU1cjXOVKSdedPaeOwfhLxkwBQSOjP%2F%2Fy0HeeueOY27W9bhl4E8jUHQM%2F308Su6uHPmDFDPAFETwHR34GKgCA3J6ELsrV5sx1I9CTQbnYA47wa%2BjCERCW%2B1GmkIWj5ZJBKssLzt5c1J3mo9fSaGNYFR9pNli%2FeA0tEzdBQ8jsTRH8JIgzX%2F7t%2F95UQAfoMQ3kGWxlCLQLXrl3LyyQwNaqbCNDSELW1deKgv3MqAo44v927VYEmiV4%2B9qgTfG%2BiC4leJT6ujwwkkSt5JtNILwLW%2Bwvy%2Fp4u45FTLR%2FvcvrJQ3sMVZkQp3ST5dUedyXyV8NBUhTMsqr3qTblvwtHEGkEQCMBGhHQPAG3XW7bLtQiQG%2Fl5qvBKyurxcRuU9MI0EGPgsq8ZbgnVyIg083Fp06QuUiT08htJ2N7ZmfPv%2F3bDiEC%2FJRQdnb0wmGoRcCr0AP1e0vLWCxevNh20G8DVR7Kl0UgmI4xkG3KeTvb9Lvf7RNCQBPFbB%2BnfbKxCYtAPyaX6N0AemFMPei3bBog23tZBHLbIbJtD74%2FmPagR0RpJMDzArm3L4tAP0SAO3juAcg2ZZv6wYCcF6ARgZ%2Fr%2BRr%2FuGIRYBHgTsUYCD0G%2FvqvV1vzAvy%2BgH%2BC9yOGLAJMAKEnAD9A5mtySwxhsycRP4WD6CBBCFv5Crk8LAIsAtyhGAMFgQE5OfwXf3GiIMpbKMLAIsAEwB2KMVAQGPj%2B92%2BLkQA%2FIZTbUR%2BLABNAQRBAoXhVXM7cEpRqT%2Fnm8H%2F4D68zZnPIWywCpjHlC2Eq6Pjv4Do025Zt218M%2FPCH18RIgD77ey9f7423UIvAhAlteWvsxiHF2NBRhofWVKU8Ns0sw4ja4ryVi8HrDV62TbRs8x%2F%2F48tCBPhdgdy2e6hF4Pr16%2Bjs7MwL4W6bV4Mbp0bi2vEReHlfg%2BtB526cHo1t82vNMhWLJaSLiw1RoNEEE1NuAcr2ZHtKDMhlpVkEcouJUIvAjRs38rbB%2FO4l9XhudyPmTazGiKFVrsfIxmqc6pqOJ%2FdPxthhbg0hRcHtXPI3ehZ7oG4AACAASURBVMtXLgZnfKZeLlp2gjB9GnXwXvQuTGXlsiSxV8i2YBEIph1DLwK3bt3KixCQCHz1zBx8cbkTn1zyPn796hb87upmfH65Ezefl8c6nI9PwLhGf42kL%2FUg1sNXVs0MXUdVV%2BnM4YRU6OrJdQv1SJZFwB%2B%2F9LdfhV4ETp06nZcN5kkEfnt5Af7w9o6Mjp5HOrB4YpmvTqSLgFyqObTLHrMI%2BGrX%2FnY%2Bvr5%2FpMYi0D97%2BcVXQYgAVaa7uzvQEQGJwG8uzcGtS%2FPw8ZkWcdz68QL8L29u9SUKPz%2FbgWWTy32RRWoRkGvvm9soKhutGCMGJZTksp4%2FCYntOrnZiuLl2s7bRiDOvHv00JWZp7MO2jr%2FtnTNLSDlfgT6OaVsfoHL1wVDCGG2K4tAMG1eMCIQtBCsnFqBfUurMWlUBYbXlYpj2pgKPN41Gr2vLE8rBLkQAWMHLIOIe3t7kGhPNrpB3GoM3rhO3VqSiJnmGJIjCuc1Ih1VGMQuYTJd97zd9vDVRSBluvpuYPGErW5hJh4uWxKDA20LFoFg2qKgRCDIDecry2JoGzcabW0TUFlZheHDm9A2YTzaRtfiXHwC%2FuH1jSmFIBsRMMhbI%2BJEhzKqoFGBy%2BSxIFd5n7kzlzY6sO9T7JaOQfw2AbLl7b6Ru10E0qSrlXOgyYTzD4ZMgrYri0Aw7VYwIhCkABB4hw1rxKFDh7F3716xq1hrayuOHj2GHdu3YdO8Rrx%2FfnZORcD2dJDqmbvti2vz1lUg2MnXTszyOuUakY4STrLCM3KPYlUQ5P0%2BRMBnulRn3u9XsSuHwRRHJ71dpAj84Ae%2F6dd9QYtToadfECIQtABQI7a3d%2BC5555Dd%2FchIQLjxo3DhQsXkEgksHnpJLxwZFpORSAZstHB70LEORWB5MjBCV6XvImoKH%2BbUGk7mnmWT6ubtf9vqjJo9zBRMuGZGKCF42gV0X%2F7b%2F%2FINslhvwi9CNy%2BfRt37twJfMP5jo4ZeP755%2FHss89i%2B%2FbtOHDgAH7yk5%2FgySefxNaVU%2FHisekDJwJ6TF0CQAuziLCSHg5SCdorHZme2yiEzqUTgbTpqsRuCI23CKrX8t9OoY6uTf7rf90rRICEgO2SOxyEXgTyIQAEqBEjRuDkyZOgF9ToTeUPPvgAH374oRgZbF%2FUhA8uzhw4ETD3Eu5TnhRye6zUmFtQQy4UClInis15Az2dngTahRCkGAnY7tFGAl7lk%2BnGe5QwkEcelhDlDtxMFIPLln%2FzN0ssEbjvvqEsBDnqM6EWgWvXrgU%2BApBEQXsFjxs3HmfOnMXNmzeFCDz44IOY39GKC13j8fdXOwdUBKic9kc77eRO5405gS4kepW4vz4ysAg7eU3SK%2FciaON3MY%2BR4hFRKUJyvsNKV4wU3PIbXCQlscSfwbQrEb%2FcWOav%2Fmoji0AURKCpqSmvDV1aWoatW7eJkcCrr76KVcsX4sC6Mfj1S2vwh7e3pxSBa4%2FMwKKJ%2Ft4TCIokDBFQnyoKpjMGVX5Ol9srHQbkngI%2F%2BtGlvHJDunIV8vlQjwQGwrAbN27C%2B%2B%2B%2Fj5dffhnzF87HtLHl2LmwBvGFQ1Ies8dXorK8ZECBySLAJDoQfSafedJeAjQa%2BNM%2F%2Ff2A9rV81jnovFgEimMoKkqSx7p16%2FGzn%2F0ML730EubNm4ey0hiqytMfdF3QjZUufRaBgW%2BDdG3E57NrI3VymOcFsrOlxCKLgBZXa2kZi%2F379yMej4sXxqSh%2BDM3gGM7sh2zwcDdd4%2FleQGNs7KxJ93LIqAZlOYFamqGoLq6BjRZnK2B%2BX4mPcZAbjHwve%2F9sxACenmMbZu9bVkENBFgUGUPKrYh2zBIDPBew7nFF4sAiwB7U4yBgsIAbzPJIlBQgA3SI%2BK0c9sZ2J6FYU%2B5hhCFhbjNsm8zHgmwF8gdiTFQUBhQ3xz%2B8z8%2FXVBlD6NosQikIYDa2jpMmTIFa9euRVdXl9j4fvr06aivH4pYjN4L4M3lwwhsLlP2HmKYbSjnBeidgb%2F9W35BMpu2CrUITJjQNmAqP3RoA7Zt24ZXXnkFPT09uHr1Kn784x%2Fj9dffEO8RXLlyBXv27EFT04gBK2M2Dc%2F3Dm6SHOzte%2B%2B9IyCfEqI5gsFe3yDrF2oRoIXcOjs789rA5N1PmzZNLCNNxH%2Fp0iW89NLL6OrahaamZuzde78Qg4sXL4pVRp955hnMnz8f9GhpkA3FaTNpMwbsGOAJYrs9MsVHqEWAVvT89ttv8yoEU6dOE3sIXLz4KGbNmo1Nmzbj2LFjmDx5CsrLK9HWNhEHDx5EZ%2BcGTJo0BadOnRZCMWfOXBaBNKG1TEHK9%2BWmsw82O8oJYl5CIjt8hF4Ebt26lTchoBAQbWh%2F7tw5TJs2Xbw0tnv3buzffwA0N0AiUFNTi3379mP37j2orh6C1tbxePjhh3H69GnQ28aDraNlVB%2BX%2FQcySodFhfGUAgM0KUxzArzJzCAXAfK0iZjzMSJYtWoV3n77bbz33ns4f%2F48du6M49FHH8WuXbtRV1dvHfSdzq9Zswb3338%2FXnvtNbHoHM0hlJUN7EqioSBbFgEm7xTknSuMynWEvvOd%2F8n2zsLeoR8JkAgQaIIWAvL0Dx06JEh%2F2bLlWLlyFU6ffgTvvvuuIPh33nkH8qBVRilUdfnyZdBIYfnyFTh79pwYETQ3j0wJSLHmvm2Nf2PjF3XvXbFvQE%2BX2B%2BgL4Br5YY0PXEjb3WzGn3PAnv%2BhseR6hpRP2XvYrf7c0UCnE52HmCh24%2F2FJD7CxR6XQay%2FAUjAmSkIIWgpaUFZ8%2BexYEDB1FbW48hQ%2BowZ848sfH8kiVLMWZMi3XMnj1HhIRWrVqN%2BvoGESK6%2F%2F59oElienw0ZYPqXjJ9J9JUyJ6IVIhCUNea20j29vYg0Z4kEoPc1f1%2Fzc1klLL5ucZtO8qUNsnCi%2BF0k%2B0XNVuo7wtEre65rG9BiUCQG87THsNPP%2F20CAFR7J8OIvsdO3Zi0qTJ4rv8ffToMeLx0NWr11i%2Fr127Dk899RSWLl2aWgS0%2FXgF4ScS6LU2cifvvNcg56CulSKQUJ%2BvVvJVSVmUQQqDn2vc9yTOJWg5rcIgflrq%2Bb%2F8l0OglT%2BDaDMWgdzgoGBEIEgBIIDOn79AePLbt%2B8QK4gS4ZMwbN26FVOmTLXInn6fOHESdu3ahYULF4nfKyurQSJAm9JTKCk14NUtHIlUiWAVcrV5%2F%2Fm41gSSGJFIslfBpZVN22vYqKtyDQmIrQ5qWvx3amwMLvv8p%2F%2F0pAjX%2FPCH19L0iczqzSKQmd10DBaECAQtAGSUmTNn4fnnn8d7772P119%2FHY888giOHDmCU6dOCe%2Be3hCWk8MUHqLz9Abxpk2bxAjg5z%2F%2FubifHivVjax%2FFyEVCrGQl22OAGQIiM5Ze%2FPKfYVzfq0qLiaQWATStpvejvw9NQnJXcDo7d4gbMUikNr%2Bfm0eehG4ffs27ty5E%2FiG883NzWJi98KFC8LDX7p0mXg%2FgASBJoflpDB90nd6guiJJ57Ahg0bxPU0MUxPDI0d25oe8Cb5x1XCJxLuSYhN4tVJYikUub3WRQS00JMFIDUc5OcaHgmkb3813DaI%2F5Yi8O%2F%2F%2Fc1AbMIiEBERyIcAEOGVlJSJZSIorj9v3gIx2dvYOByHDx%2FBiRMn0No6TkwM08tiJ08%2BhCNHjmLEiGYxOmhv78Bjjz0mdiSjDWksAvXs4BQ%2B6UOfjP3TdUIYetHrCLcEca2LCBTHjKeRbPkb16kjE%2BPpHzVs5LxGhINs6eQGrOntyvmEyUZSBOgziHL95V%2Fu4KeDPDnGf18I9Ujg2rVrgY8AVHBOnjxZkPmhQ4cxbNhwEe%2FfsGEj6MkfevST5gPozeF9%2B%2FZh8eIl4ntd3VDxpBCNCjo65ERr%2BkXlBJlak8HUYAaZqk8JybLl%2Flp3EaD8jKd%2FSKCMQxUAWZ7015h10Z56kvfzp%2F8OWsi2kou8BSUCf%2FEXJ%2FhlscEuAk1NTYF4EF4di9b%2FoRfGXnjhBbFGUENDo5gUpkdTacKXRGDbtu3ifQJaR4geJd2%2BfbtYQ2jLli2oqKjIa3m96sG%2FR4Nkw97OUgSCWuBNLhvxgx%2F8hvtdFmIQ6pHAQICcwjnk%2FdPqoTQ%2FsHr1WrE%2BEC0TMXLkKBw9eky8O0BPDD300MNCAEgIaERQVJR%2BBDAQdeI8WRQGAgNSBILaC1iGm4KacxgImw1EniwCmoLSKqJVVdXiHQFaMoKWkf7www%2Fx8suv4PHHnwCFqOiNYfqkl8PoSSG6ngWAiXYgOnCY86Q1feiN3qBEgMif0g8q3BRm2%2BaybCwCmghI49IaQA0NwzBjxkwx4ZtIJATp0wTw3r17xSOlNHFcXs4hIGkz%2FmQhVDEgRYBeGFN%2Fz9Xf3%2F%2F%2BbSEC9D5CrtKMYjosAh4iIMFA8wTV1TWor68HrTJK7wrQd7lQHI8AmPgkVvjTjoXvfrdPkDQt9JZr2xQVVYm0aSRATwnlOv0opccikEYEogQGrqudxNge2dlDLu4WhAjQlpIy%2FbvumsQikAWPsQhkYTwmiexIgu03uO0nSZpW%2B8x1W1OIidLnZaSzxxCLAItAzjtorjs8p5d9Rx8IG0oRoDd7c50%2FrUdE6fOuYtljg0WARSDnHTTXHZ7Ty76j59uGtIJoUCJAm8zTCIDS50nh7LHBIsAiwCLAGMg5Bmj56KBEQI4CSAhIEPItcIMtPxYBkwAqyu7DwrYSHF9VhYfWuB8Hl1Rg6shSBh2TJmMgDQaCEoG%2F%2FuvVlrgE9f7BYCP5dPVhETDBvHpaOa6dGIXPzrfi5qnhrsfnj07Byc0tGFZTLF4Oo8dD%2BRHR7Iej6UDK5wvPxkGIAHn93%2FvePwsRoHcQ6DFRxkb22GARMEVg18IavHO4AZtnV6GprtT12LNoCF47UI810%2FkFMe582Xe%2BwWzDXM8JkADQJDCFmCgMRI%2BIDmb75bNuBSkC9LLWmTNncgqC3Ytq8GZ3PZZNLvdMd3RDDI91teKr51fg46dWWseHF%2Bfi%2BNpGNNXy2kH5BC%2FnFW4hknMC2T4iSu8ZyBfPKE1%2BOSy37V5wIkAC8Pnnn%2BPjj3O7UYUfESiJxTB5ZBm2zKnGjgU11vH83ma8fngEFrWVeQoIE1Zugcv2DL89Zegm05fFyNunFUKlmNAIINO0GC%2FeeCkoEZACQGvdf%2FbZZzklXD8iQEAqLYmhsiyGqvLksX%2FpELzVPTTlKEIHob4mv7qbmH7OvseA3AtAWbNf3ZzG3JegJ%2B513hsMehn5O9sqGwzItYP6O4FL7xXIFUKlANBicfxmcDB4LBgRIAH49a9%2FjX%2F6p38SG54MlAi4dQpVQPxMFhskr%2BzO1Z5AIm40sOOcY7MZSe69SLQb99g3nUl3PhggudmFf4u2raUXn24%2FAZrgpRAPEb8cPUjypzAQe%2F%2FB4qggREAXgIEcCbgRmyoCbuftvxnbRaqef%2FI8nUuSu%2FW7us%2BvKQq2Hb%2F6dT5YQFllTvMIIV83%2BNuByJ%2FI3GvTF3qCiIhfjfdL8qdRBI0gaIKZsRIsVkIvAm4CELQIDK0qwtHOVmviV50Edvv7lz9ehd%2B9tArvnpqMVdPSPDlEG8p77b%2FreU4VB8PTt4mIbQP4dOeDBRR3WLavxIDc%2FpFi%2BerSEZL8JeHLTyL%2BH%2F3oEj%2F5k2cHKtQi4CUAQYvA4olluPbwVPzD1Q39Op4%2FMAltTSWpPRdPoo%2FBe4N2FgFJLPxZOCKjLu9ARE%2Bhnu9%2F%2Fw%2FWRK%2F8jTx%2BfuRz4No1tCJAAnDz5k1rw3MifvWgc7kkBDWks3fFKNx6YVm%2FBODvXlqGg2tGoqwkTWPavHbtWq9zLuEeHglotsuz95RL7A3WtCjW%2F8Mfvo3vfOf%2FsxE%2Fkf93v%2Fv%2FiHAPv%2FA18DgOrQg0N4%2FEggULPI%2BpU6cFIgJHllfix92T8A9XOvslAj2np2PJ5DShIJOoxESuGhJSJoYd5xxzAOnCPenODzzoBivpcb3s2CIPX4Z69M%2FvfOf%2FxX%2F7b%2FNy2ofZ%2Fnb7%2B7VHaEXAbwVydZ0cCfzk%2Fjp8%2BcSMfgnA76%2Bsw0PbxqG2qsg3qA2yl6Mb%2B2Sw%2FoiobRLYegRUaXDbCIJFIFeY4HQUjGUw0iKSp83m%2F%2BzProPW%2F6fwEK39IyeCKTxEv7Gds7NztvZjETDBvXpaBV7ZMwQfn5%2BC37%2B6rl8i8PnjM7B1TjWKi2ktoYFt0GwBwfdz%2BwWNAXURONonmL4HnSen741rFgFTBKrKS9A%2BuhSbZ1dYbwKrbwWn%2BnvFlDJeMiIDT5E7pnfHHOy20UNFNCqgR0p5gjj%2FmGARUMirrDT5FrD6RnC6vyvKYiiJ8bpBg524uH65JSgaAdBIQJ8voP0C%2BP2A3No6FXZZBBQRSGUoPpc%2FULKto2VrWg6CRgbq28K0YigLQX5wwCLAIsDxWMZAKDBApK%2BGiVgIBkAESBH4YBswBhgDA4mB4uLzVojo3%2Fyb%2Fxt%2F%2BZfvoaami7kpQH7%2Bk6qqIWzgAA08kB2K82ZCL0QM3HXXC5YQyDmD73%2F%2FW9TXb2CuCoCrWAQCMGohdjwuMwtGmDDQ0LAaJAY%2F%2BMEdSxBoZFBbu42FIMecxSKQY4OGqSNxWZjYBwMGKBxEAkCjAhIFEgc67rnnWTQ2LmVRyJLDWASyNOBg6GRcBxaLsGOgouKwNSKQISL6pDmDsJc97OWLnAjMmrUAEye2M3BY%2FBgDBYaBqqp9%2BNGPbtkOEoewk2zYyxc5Edi0aTu%2B%2FPKrUArB6NETMGqU%2FaDfwg4iLh%2BPJBgDhYuBSIoALUsdViGIemd6%2BEsA%2BBoPZ%2BGl5iKNXLbD%2Biv%2Fgyql%2FMuufrksG6dVuOSdq7aLrAj8%2Fd%2F%2FfoCEYCLGzZ6MmUdmYdljS7D47CJM22iEpyYvnY51T6zBqkNrsGTHCsRfjGP8kinhHQk8%2FDXwx9exPgvCzhWQA00n43puxpU%2FEvdrpP%2Fw1%2Fjy4RyST8bl8yhDrtMb7Pgo8PpFVgRmzJiHfAtBy9iJmNO5AAff2Y%2Bzv3oE5397Bud%2FcwY7ntiJqSs6sO3lLXj4k5N48MMTOP7zozj71Wlsu7QFU9dPD6cQRIUsMqynGAHkQyQzLJ%2BncOY6vQInSU87DZJ6RVYEqGHzJQRGrH88pixrx46r2%2FDIlw9j%2B0vbMGvfPMzavQgzts%2FBpCXTsP6ZNXjgg2M4%2BO5%2B7PlpFx764gGsfmIV2lZNTSsCFAL545UzpudpRB6Et7n%2BdQhnVPykeaS2c9C8esOL%2FfJh6c1SAv8DV9Yb3qMRcjHyEf9%2FecYqoz38kbxnzJjUaVKbGPXYbKWVSb30NCjdTMvkv54AFBuMGXMGFNny4%2FHby6ank9pm%2FsuXbAcjPxULZht%2FeUbYX2lVrU7JkYNeZqueJCDWv2Seg51IC7l%2BkRYBarh8CQHltWTncpz%2F9Rnsf%2FMgJi6dgZYJE9Ey3jhaZ0zB%2FOOLcf%2Fbu7HzxR3ofHYDjn50CHOOzkPrXH8ioJK01UktTzTZ0SVg11%2F52iJ1SdBJIjOv14nfSq8NY1w8RpGvfo0VDkmfpk7gBsklycRPvfQ0si2TZz2tehE5avYVZKgSbZJApf3p06iPep2Wjkw3gHb44xVDbF3to7ah5vE6yrz%2BdVyh8JZwKpJtNebh1xV8uddftQX%2FPTA2irwILF68Ev%2F4j%2F%2BId999D62tky0PNNeAbJk0Base2IALvzqLree3YczYNqhP%2FsxdvwBH3zuMR393Hhd%2Few4XfnMWj%2FVewMGf78PMrllpyyXIMp0n6kLatnrazhtkJIlCXCc6uUJYtusJwOT9KiQgyMNIx%2FAU06epE3gm9bKnkX2ZnCLglqYkQdM%2BvkTARzqmCOS2HdSyupTB0a4qOdH1HiMcHR%2BaeNiwxufS9ul82SvSIpAvAaDGbJk8GatObsBjv7uAnY%2FHHSLQOn4yZm%2BZix1Xt2Lrha1Yf3wjut89iOlbZmJs26S0gLETnwchu3Ruw6uzxu9KSEglb5MEHJ6eNjEsiE9JS%2FlTFQErdEBEoKWp10P%2F7io0Wr1s9%2BSgTA4REGkqYmgRmkKontcohOp5jZKOFUJT7tNs5l4%2BxfjKn6rtyU7in815cB%2FhWYTkWWYqn4EZSlPNx7rXspNSF%2F4tbd8O2n6RFYF8CoBoxJY2LN%2BzWojAgZ%2Fux6TVzsne1vYpmLxpFiYt70DbgmmYtmMWWtr9PR1kIz7RsVQiMTsddWBrmG94dMnveufPVATcyFF2%2BvRp6vXQv2cmAtmVyZ1k3dJUbK4TtRvZeRKqkk7GIuBWPtkOxqd0AGyjDCqnDSf2e8Q5WxhMO0%2F3i7qTFKQvQ9AEx%2Bm7tI%2BGxciKQD5CQCoAKfQzbVUHdr8Tx2N%2FdwEP3jiB%2BOWdiL%2B0A5seMidCW8w5gnET0dLaJuYLxrTYw0Zqmurf%2FSZL0VHtndQeG05P2A6ySEt86dPU66F%2F77cI5KBMvutps6lR1%2BQci0tn9CqbSzo2z1q%2FTydt%2FbzW6QVuZB5u1%2Brpqfe7Xa%2Bet%2F426u8QGOu8iz343ICMCiIrAkHPAagETX%2BL%2BH9rG6avn4mdr23HxV%2Bfw8Vb5%2FDI5w9j8%2BktGD3aH9nr6crv%2FSZLvTOL7%2BoTQukJ280rpHLYPcDNuPKlfJcgfZp6PfTv%2FRYB84mjbMrku55%2FpCe0kk82GWVVbWoSn%2FKegKu9bOmkt5nv8mntIMtqF39zJKB68RpWHGWWE8NKvWRoyCZeTPIDQvKSI7w%2BIykC%2BRYA1fgt4yZiwrSpmLJgFqYun4MpszowfpLx9I86Uaze4%2BfvTMhShgNEXJjCRDYP0Af5KDFg1eM1SEKkaiRtEWP6NPV66N8zEQGyXzZlkoQmKqPEz232I6636ql6uUadk9ZwikLqdNLbzKt8XnUWv1thQSqrERpMll8pM9VXEwGnPc2HAaQjYVY2mZ5qD%2F7bT3%2FO5zWRE4Hp0%2BcE%2BhSQ78ZrabMmh0eNGh9KD8F3XdjD4%2FZjDBQsBiInAkxs7IkxBhgDjIEkBlgE2IMpWA%2BGO3KyI7Mt2BaZYoBFgEWARYAxwBiIMAZYBCLc%2BJl6Dnwfe52MgcGDAUsEiotj4INtwBhgDDAGooMBEnMWARY%2FFn%2FGAGMgohhgEYhow7OnFx1Pj9ua2zoVBlgEWATYA2QMMAYijAEWgQg3firvgM%2Bx98gYiAYGIikCzc0jUV1dw94PCyBjgDEQeQxEUgQWLFiAmzdvhlQIilFU5DzYK4uGV8btzO2cbwxEVgT6%2BvpCLATR7gjxnj709fUgnoWXmos0ctEZ2xO9IKzpR2%2Biw%2BGBul3rdl0uysVpRLuPqe0faRG4devWgAlB5fAqjFnbgukHp2LKnklo7GgUpFA%2Frh5zjs3EtC1TMWHpBKy8uALVLUMchKE24oD%2BHe9BX28C7VkQ9oCW32%2B5M6ynIPaeLq39utAjhMEudI5r2xPo7etDT5wJqyAw4hdLIbsu0iLQ1NSEfAtBrKQUI2eOwsaX1%2BPQZwdw5MtuHPniIJY9tAQNE4di6cXF2Pf%2Bbuz66U7seGMruj%2Fej6VnFmPY9AaNSEJCDBmSY8F16gzr6SB2iwA6kOjtQ58iEG7XihGNck3B2c2qb0jwyuVx8EikRYA6VL6EQMb56yfUY8UTy7D%2FF3ux7NElGL28BaMXt6J53ijUttZi7oOzEX9nO7b8ZCPWv7AGez%2FchRnHOlDbVudoPJ0QiDB6E10GuZghCOFFmh6lEZKwe5%2FFtnN9mldvEFVP3CQskWYvEu1GhzZCLkqoQyErQWhWGCR5T3Fx6jSpTkY9kuGSTOqlp0HpZlom%2F%2FW0k7qVp2IXW5uRsChhLy8RSBUSstdJGTWItGXbqPZnMra1AYuCWDMqcm8M08QwEaIEQ76EgPJrWz4BRz47iA2XNqC2tQEl5aXWUd5QhXGb2gT5r7i4HPNPzsfOt7di7LpWVDSmf5rJIKtkh7cIwgrXuHmfPRapS4JOeqeS%2FJNpijys9GIodvGQRb76NRbZpU9TJ%2FBM6qWnkW2ZPOtp1YvI1c2%2BvTZvX2JOfAoBTtpWlFEVDE0kbPdaoqaIensCCQodaekWxxNKG7MI6HaM%2BvfIjwQIABMmtOH27dt44403UVpaZolDrsFRUlmB9h0zcfTzbiw8sgDFJSXiSSCZz6hZo7D9jS04%2FsvDOPbVIRz5ohsnfnUEW17dgFGLRqYtlyBLlUSKjdizLabsQtoyf%2FFpO2%2BQms0TFQSjEI%2FteiIYyjNJbEbaRjpGOdKnqRN4JvWyp5F9mZwi4JamJOCkfRzEbvM87WmIa63Rk%2BHF29rOca%2Fi%2Bavn9DZSz%2FHfafuRrT9EwF6RF4F8CQABS4jAzpk48csjWHZyCYpjJTZAllaUYdS8kVjx5FIsODYPs%2BIzseXVTRg%2BawRKK9OLk534PAjZQdp6mEQNCankbXqQDi9Tmxim9DUik99VEbCRm5amXg%2F9u6vQaPWy3ZODMjlEQKSZJPskcbgQu02YFU9cq7dTMAz7J0dmyr2e%2BdM15n08qWzrX8k2UuwYAZJPV%2B9Ii0A%2BBYAaIhYrweQ1k4UIbHpxA%2BonOSd7y%2BsqMXT6CNSOa0DNqFo0zh2JktpKX2C2EZ8At52QBBhsZEnnVdLXwzuZioAbOcqOlz5NvR7698xEILsyBSICtrYwxVgXDE0orA6dUgRMW4t7aUSRqu6yXfjTsm3EhCHSIpCPEJAOrGGTh2Hdj1fj%2BDdHsOvaTiy%2FuBTLH1uKuffPMYg%2BVoKSslLESkvEQXMGxbGYLWykpym%2F95ssBUnYCUJ4o1Y8Pz1hO8jRi7SsjpU%2BTb0e%2Bvd%2Bi0AOyuS7nppNnd69JFtDgNURkeu1WnqyrR1xf8u%2BMn35adjbFtLzvFbew5%2BWnSNgq0iLQNBzAE4gFQtib2xvxMonl4u5AYr97%2F9wL%2BYfmCdEgJ4ict7nr1P2myx1chTf1ZFBesIW5Kh5mlQOu%2FfZgUSPfJcgfZp6PfTv%2FRYB84mjbMrku5699IRW8skmRoKMKAAAIABJREFUb2L38ySRYSsrHKS1l8POcmI43qO8W%2BBi7wgQW6Z9KIr3RVYE8i8ASSInT7%2Byvgp1oxswdPxw1I6oQ8UQfyGfVCDNhCwFSckYPo0AbCEKFwLRiEiNP1tkZZGufERRJcb0aer10L9nIgJkN4M0MyuTVz1t9utT62m0t37e9TFdk5Rdr1XDQw7b63UyJ%2BSlmJvtqopSKvzwuWQfjZItIikCDQ3DAn0KyDeAYjFrcjibEYDv%2FNgDzHiUxTaOJkFGod0jKQJRaFiuI5MWY4Ax4AcDLALsHbN3zBhgDEQYAywCEW58P14CX8PeJGNgcGOARYBFgL1AxgBjIMIYYBGIcOOzhze4PTxuX25fPxhgEWARYC%2BQMcAYiDAGWAQi3Ph%2BvAS%2Bhr1JxsDgxgCLAIsAe4GMAcZAhDHAImA2vtz0hb2ewe31cPty%2BzIG7BgItQjQKp%2F5arDm%2Bhi2zCrDQ2uqUh6bZpZhRG3m6%2Fvkqz6cjx3obA%2B2B2PAHQOhFoHr16%2Bjs7MzL0KwbV4NPj43Dp89Ogk3z411Pejcx%2BcnYNv8WrNMxebqnoYo8NIP7iDjzsd2YQyEFwOhFoEbN27g22%2B%2FzYsQ7F5Sj2snmrFtfj1GN9a4HrPG1%2BK5Qx14cv9kjB3m1qhSFNzOJX8zFjLTd99KnjcWSHOuMplJRxKLkqmLkKWJfToXa1PLxX9n0gZ8D%2BMmzBgIvQjcunUrL0JAIvDNc3Px9Ysb8MmlTtfj88uduHVlC353dTPo75vPy2Mdntk3EdNHl%2FoatcjVLL1WdyTi7u1NsTdtGiJXAcciwASk4oH%2FZjzoGAi9CJw6dRrd3d2BCwGJwG8vL8Af3t6R0fHumQ4snVTuWwQEyWvr8BuNYyy1zCLAnVXvrPydMREEBgpCBKjiQQtBtiLw87MdWDa5HyKQ6EKi12WjcHM9%2F3jCORJwrDfvEuaRowyxbn1vAunTsYelHOEgsY2hXIPffm0QgOQ0megYA%2FnFQMGIQNBCkH8R6IAgdWsrR6PhJQnrYRxDANStII0Rg2MjFzU9SeCKWDjyFNck05X5i46ob2ISTyDRnl%2BAMiGwvRkDwWKgoETgiSeexJ07dzBnzlxfYZf%2BgGcgRMCxQ5YgXYOQ7SLgsmE8zQso1zvSMucNxMjAEgG3dOw7fTlFICkQ%2FbEnXxtsx2X7sn1zhYGCEYEgBYCMOTAiYGwPKCeIVeJX%2F3bb39YAgELqNkFIdhBnOjK0Y%2F%2BUG57bRKDYHG30uYSt%2BjE5nSuwcjrJdmVbsC1yhYGCEIGgBYCMOVAikPTmiXCTMXcnebt55IoIaGEdCRB%2F6SQ7lF0EzN%2BFwJBouJUhea%2FMkz%2FZJoyBwsFA6EXg9u3bgYWAVKAOmAiY3nZPTw%2F6lHi%2BjbwFCScFwiq36v17XGMLB3lcY6VnbsYuRybq73KjdfdzhQN4e5243GwPxkDoRSCoOQAd%2FAMnAjEY4Z4%2BqARrEwGTnO2euBGqUe8RhK8IiUzXMXls8%2Bg7kOhJoF2ZQ7DSjPdAhomkCCS%2Fc%2BfRMcTfGROFiIFQi8C1a9cCmQR2a6gBFYFiCuvYQy26CFCZxW99yVi%2BRdZWfD4ZwxePiPZ0GfdYE8NGJxVi4ZGOLRwkRg6p8uNO74Yl%2Fo1xUUgYCLUINDU15fwpIK%2FG2b2kDr%2B9PD%2BjF8XoBbP%2BvCfgVQb%2BncmDMcAYyDcGQi0C%2BTTGyKExrG6vQHzhkIyOJZPL0FDNq4vms804LyZMxkD2GGARKI6hqCiGWCyGirIYqsozO%2BheSoNByTZgDDAGCgkDLAJWPJ2BW0jA5bIyXhkDucEAiwCLAI9eGAOMgQhjgEUgwo3PnlRuPCm2I9uxkDHAIsAiwF4gY4AxEGEMsAhEuPEL2XvhsrP3zRjIDQZYBFgE2AtkDDAGIowBFgGz8WmTeN4oPjeeBXtobEfGQOFgINQiMGFCW948lOb6GLbMKsNDa6pSHptmlmFELb8Uxp28cDo5txW3VSoMhFoErl%2B%2Fjs7OzrwIwbZ5Nfj43Dh89ugk3Dw31vWgcx%2Bfn4Bt82vNMsnRgyEKPJLgzpaqs%2FE5xkcYMRBqEbhx40bgG8zLRqEF5K6daMa2%2BfUY3VjjeswaX4vnDnXgyf2TMXaYG6ClKLidS%2F6mL%2BDW1%2BeyTHSEY5SyTfgziRm2BdsiKAyEXgRu3bqVFyEgEfjmubn4%2BsUN%2BORSp%2Bvx%2BeVO3LqyBb%2B7uhn0983n5bEOz%2BybiOmjS32NWmwrdVqrg7IQBAVyTpcJlDHgjYHQi8CpU6fR3d0duBBku5T0u2c6sHRSeUYiINfqdy4N7d1wDGq2DWOAMZALDBSECFBFgxaCbEWgP0tJ6yMBmwhoa%2Firu43JBreFk3oTiCd6oW4cQ9fZ9x7QRhliK0q5T4B2jsNQvoRctgV%2FMhEXOgYKRgTI0EEKQRhEgHbtak%2F0INEuO5a5SYyyKYwQgDS7hwkBcFxjblqjbzEZTyj5yXz5s9A7NpefMewXAwUlAkFuOD%2BQImB49vadxawGJK%2FdInRlY3nFYxf3W0Lhdo0hJmJrSCECHnkpaVr58288MmAMDGoMFIwIBCkARHj5FgGx%2FaPc4tEiecN7sYdy%2BpIi4EHg4nopArZQjwz5GJ%2FG%2FsDJLSh5v2D2FlnsGQMFIQJBC8BAiID7JDB58QrpkwemjgQEwTu9eKcIOK9xdHZr7sHHtewJDmpP0IENbu9ItXfoReD27du4c%2BdO4BvO53sk4CoCLp6%2BLb4vzjsncm3hII9r3Du6MSpwLQsTQaSIwB0f7CVHwS6hF4F8CAA1dHhEQCF56a1b4SIzlGN9N0cKNHqQ4aDiGJxzDB1I9CTQbo4skmEgZa6ASZ9JnzEQSQyEWgSuXbsW%2BAhAKn0oREB%2FtJPIXg0HiU6ajOmLeYWeLuNxUEUEqE6GECTnBCxvXwqLOR9h%2Fc4EEEkCkPjnz%2BiOekItAk1NTXnrmLuX1OG3l%2BfjD2%2FvyOjoz3sCue5wRPhM5tHtxLnGE6cXLSyFWgTyCcaRQ2NY3V6B%2BMIhGR1LJpehoXoAVhf1mCzOp%2B04r2iRBrf34GpvFoHiGIqKYojFYqgoi6GqPLOD7qU0gu4gepinr4%2Bf7gna5px%2B8LhmGw%2BcjVkEOBYeuHBxBx%2B4Ds62Z9unwwCLAIsAiwBjgDEQYQywCES48dN5CHyevUjGwODHAIsAiwB7gYwBxkCEMcAiEOHGZy9v8Ht53MbcxukwwCLAIsBeIGOAMRBhDLAImI1Pm8TzRvHsNaXzmvg8Y2SwYSDUIjBhQlvePJTm%2Bhi2zCrDQ2uqUh6bZpZhRO0AvBQWYU9lsHU6rg8LSZgwEGoRuH79Ojo7O%2FMiBNvm1eDjc%2BPw2aOTcPPcWNeDzn18fgK2za81yyRHD4Yo8EiCO3eYOjeXhfHoBwOhFoEbN24EvsG8NBItIHftRDO2za%2FH6MYa12PW%2BFo8d6gDT%2B6fjLHD3AAmRcHtHP8mbc2fjAXGQHgwEHoRuHXrVl6EgETgm%2Bfm4usXN%2BCTS52ux%2BeXO3Hryhb87upm0N83n5fHOjyzbyKmjy71N2pxrAyaBSBymRaHnPy1H9uJ7TSIMBB6ETh16nSgG8xLjyTbpaTfPdOBpZPK%2FXWOXBJ3LtMaRMCW7cqfWTgYjAd%2F%2FbnA7VQQIkAdubu7O9ARQbYi4HcpaccCcMo%2BAPa9hZXNZQhkRPZyT%2BI%2B45xnWi7XMhkyGTIGGANuGCgYEQhaCPIlAqIRXLx32zaSFumbK4TqW0bGE0i0m4DW00p1bYF7LG4A5t%2BY2BgD2WGgoEQgyA3nB1YEaIN5zfMvVrZ%2BFMTusWS0qwh4XMsiEInhPZNidqQYNfsVjAgEKQDU6AMqArbwTXJLSAr%2FGPsBJ7eUTO4P7DESMMUjeS93iKh1aq4vY74%2FGCgIEQhaAMIhAj68d2t%2FYOVafSQgvX23a%2BU5%2FuQRAWOAMWBiIPQicPv2bdy5cyfwDecHdCSgx%2FFTdlBjVGDtKewlAiIN7dqU6bL31B%2Fvia9lvAwWDIReBPIhAAMyEtC2hTSe9FE8fArr9CTQTsQd7zHDQtTxlLkC85xti8lU17IIsPfHGGAMaBgItQhcu3Yt8BGAVPO8jgSUuH2f8oio%2Fsin5e1boR1jvsD6XTRmcr5ApJXyWvbeZHvzJ2OBMWBgINQi0NTUlDfV3r2kDr%2B9PB9%2FeHtHRoff9wQYeEw%2BjAHGQJgwEGoRyKehRg6NYXV7BeILh2R0LJlchoZqXl00n23GeTGZMgayxwCLQHEMRUUxxGIxVJTFUFWe2UH3UhoMSrYBY4AxUEgYYBHQJkkKqfG4rEw2jAHGQLYYYBFgEeDRC2OAMRBhDLAIRLjxs%2FUg%2BH72QhkDhY8BFgEWAfYCGQOMgQhjgEUgwo3PXlzhe3HchtyG2WKARYBFgL1AxgBjIMIYYBHQGp82i6ejrKwckyZNxq5du%2FDQQw%2Fh9OnTnscDDzyAzs5OjBjRzJ1Js2e2Xgrfz54uYyBYDIRaBCZMaBsQUh0ypBZbt27D66%2B%2FjuvXr4M2vP%2Foo488Dzr%2F%2Fvvv44EHHsTo0aMHpMzcUYLtKGxftu9gxUCoRYAImDzsfBt%2F8eIluHLlCj755BO89dZbuHDhAk6ePGk7zp49K0Ti008%2FhTyuXr2KJUuW5L28%2BbYP58eEyBgYPBgItQiQh%2F3tt9%2FmVQgoDLR79x7cvHkTjz%2F%2BOGbOnIVhw4ajoWGY7aDQz5EjRy0BICF48803sWLFisiIgHPl0%2Fx0jIHKl4kvP%2B3Lds6vnUMvArdu3cqrEDQ2DhdhHSL17u5DqK2tR3l5peOorh6C%2FfsPiGuamkaAjmHDGlFZWVX4IuC2R4Hbbxz%2FL%2Fy25jaMfBuGXgROnTqN7u7uvAkBrVxKoR8SASJ5IvtUItDVtUuASE4oy8%2BC9mbcCN%2FtNyaQyBNIQeOc8SvwWxAiQEDLlxBkIgL9Jn5tzf%2B%2BXnPzGBOUFO6gPQPaE72gvYLFkcE1tBmNdb%2B2kb0tbeWcvqcB7VHg9hu1iSynQQRysxtlfwMlXUkWtrR6E4hTHZU9FVKVWU3DtqeC73r22fOyNuhJXWaZL3%2FmN0zB9s6PvQtGBAgQ%2BRCCfIhAe6IHiXbZwCYBKUQoiTJJdBlco29ZGU9YeQoBUEVFkKiyq5mb1%2B%2Fym5sI9CnEL%2Bqh5KN%2Ftwhf1j1FmVVCsOWb4h5D6JR6yc18ZH7ye4oyq%2Fny3xKz%2FDmYsFBQIpCPDefzIQIOAGkEK8jSIiqzw2lkl%2FYacb1KgLLjdqFHIT2jLIbI9MTNa7TyiGtcfrORsUmoSeGKodhWBrd8jdGENRKwXS%2FL6%2Fy05et5j3t%2B9jIZ9fYuszNvR9txSIFDYgWOgYIRgXwIAIV1yssrMHZsK2bNmoWWlhZUVFSlnRPodzioOGYP9VDIR%2FOYbcQkQGYnNRsRWiBUrzFHD319yv7Exn7FyRCRGWoyQ065EAErDSqTIOheYwTiQdbCW7cEz6PMVv0MUrbX3eMeEi1tH2eDwJ028iyzli8LAIviYMRAQYhAPgRANm5rayu6urpw%2FPhxrF27DsOHN6GkpBRlZRU2MZBPB9HEcP9EgEjITvoiLJJzETA7rCBfIntzVOBJjkoHd%2FH69TKSvdzI2JNQPfK1i4BHmTUytufrcY9HfsXFLAIS6%2FypYF7DWJRsE3oRuH37Nu7cuRPohvOSxJcuXQra3P6bb77BBx98gBdeeBFHjx7F1KnTUFpanhsRcPGI9Rg9kZwVIpHg1EjNzzVJICthD9U7l2nrn0GIgEe%2BrvUQ5VHKrJXPVQT0ezzycwsHeQqXlm%2FSnkwebIvBg4HQi0DQAiDBPGbMGDz11FNi%2BYdDhw6LZSOOHTuGc%2BfOYe%2FevaAlLCoqku8LZDwS0MlJfLePDAQx2sI4xuhBDRGlvSbeo4SBDEKVZGfcq84XdCDRozyhpAmOsJHLb3Yytuch7rHV1Tivhr0cE8NeZbalo41AvO4xRyrWCEgXCeW7tIuzzIOno0uc8ye3qY6BUIsAeeVz5szNy8TTggUL8NJLL%2BGxxx5De3s7amtrMXv2bDESoGUjVq9ejaqqGms0UFNTiwMHDqL%2F4SBtPoDCQJrnbZBrFxK9SszeipsbIE57jRQXM96vCgiBwBCCZPr28yZh071Wvs7f%2BicCVG4lDTNtWzjIq8ypRMDrHtOLF%2BmbNqC5ELd6sggwMerEGKXvoRYBelInX41BIkACcOrUKcycOVOsIjpu3HgcPnwYL774Inbs2IG2tokYM6ZFCMGUKVPx8MMPY%2F363K9tZCdX9w7q55p82S6bfDKpRyb3ZFNGvtcdg2yXwWGXUItAPkFGE8IHDx7ExYsXcf%2F992PhwkVYu3YtaFG4d955RywpTaRP8wSPPvoYXnnlFfFmcUvL2JwLlR%2BS83NNPu2XUV4uIaa06WijgrTXc1w%2F5%2Fhkmw8O8pftyCJgkkRpaZkYATz44IPC83%2F33Xfx9ddfo7e3FydOnMDEiROxceNGIRS7d%2B%2FG8uUr0Nw8Ujw5JI2Zq08%2FBO%2FnmlyVJ1fpUJntj6eq8xJpOpYQDON%2BW%2FiGSZ5JnjGQFQZYBBQA0TsC48dPECOBl19%2BWYjB5s2bUV8%2FFCQSVVVVqKmpQXV1jZgkjsVKxOOhuSJJTieNEChtxbZiWzEGcoMBFgGFWOhRUXongEi%2BoaEBQ4c2iFVBY7HcGJtBy3ZkDDAGwoYBFgFFBMLWOFweJgzGAGMgaAywCLAIZBVPDBqgnD6TIGMgWAywCLAIsAgwBhgDEcYAi0CEG589rGA9LLYv27cQMMAiwCLAXiBjgDEQYQyEWgRovZ5CUFIuI3t8jAHGQKFiINQicP36dXR25n5ZhmwbS646qn9mmy7fz0TCGGAM5BsDoRaBGzdu5G2D%2BXwa3vnmrLnxSoSHpPm0P%2BfFRMsYSGIg9CJw69atAROC6tE1aN3YivbuaZjUNRH1E4eK8NTw9kbMf3AOxi8fhxnbO7DggfmobK72HbrSl3wwVrpkIeCOmeyYbAu2Rb4wEHoROHXqdF42mFcNHispxbjl47D16iYc%2FuwAjnzZjSNfHMSsXTMxYlYTVj21Avs%2F2IOdb2zF7p6d2P%2FBXsx%2FYC7qJ9T5EgJdBOQSy%2FZljrkTqG3CfzMeGAPBYKAgRIAav7u7O%2FARgYzxD%2B8YjvWX1%2BL%2BD3Zhwel5GLW4BS0rxqNxehOGTW3AojPzsevaTnReXoutr21E%2FGfbMXX%2FVNS0DMmBCBhr7vfEzW0o5baQbvsSW2v9J8FhCzX1JhBP9Dr2BHCkra3Jb9v4xdpG0r6%2FgVjEzXZf6sXg9HX9rUXglIXh%2Bvp6fdmPySDZ3mwLtkW2GCgYEciXEFA%2BM3d24OiX3Vh%2BbgVqRtWhpLwUJeVlKCkrReWIIZjUNQUbX1mPBScXYOXjK7Dx5fUYvXwMyodW%2BSIxr5GAQYyGCPT29hgbtJvzBAaJqkRrbtCiCIEQAGWvYsfOXeamLs601bw80u1LhqssQrfyct6jAtNR9vYEEnFtI3qqZzzhy35q2vw3kyBjIDsMFJQI5GPD%2BdKaKiw8vhiHPzmAjm3tKNYWj5uwcjziP92B4788jKNfdOPYV4fE3%2BsurQaNIPwAUhcBw3uXBG%2BKQKJDSUvdHF1pcOGJy%2FvcrxFpW0LhlraSnpyYdtnpLLnDGF1vjFIsb14QeA%2F0EYRhC5drZT628ruUQ17HnwoW2E5%2B%2Bhhf4x8nBSMC%2BRAAAg6JwKITS3D8q8OY3TULxbESWwcsqypH68qxWP3sCszo6sDSBxZjzTOr0TC1EaUVpbZrvYBokL6ytr7lUVPDGUTtIFglLJRMVyF%2BD0IVXrgmAra0TYK1vHu5FaNSJl20DBFIjgxEeTThsMoowj1SqHRgmiMI237K%2BjX83bIli6Gv%2FsX26l%2BfKQgRyJcAEHhoj4C5e%2BfgxDdHsDKxAkPGOid7K4bVoKGjWYSK6tuGoqGjCSXVFb4B6iRVtdEyFAEPsk0vAoanbvPiNUJ3llcRH0lM2j1WR%2FQol3We7rfmFnp829B2vywDf7L9GAP9xkDoReD27du4c%2BdO3jacJ3JpntuMLVc34tjXh7HzjW1Yen4RVj%2B1ElM7pwoDx0pKxPxArLQEsTLjb7qPJpb9kJOTVNOIgCBJzfO2yNP0sj2uobySoRwXgXEZQQjhyNVIwKNcTjsZZXP%2BrtqG%2F2b7MAZyjYHQi0C%2BBYCIvKS8BCMXjBRPCB394hCOftWNfdf3YPqmaYLo%2FZK9V2P1WwTMJ3T6bCEhgzSTj5Ua3x0ePYV3UoWDdJIW3%2Fts8X1nedOMBLQ0hRCpZZcTw%2FEeJENTLAJeeOHfmfiDxECoReDatWt5HQGohqYngqqGVqO%2BZRjqWxsxpKkW5f0I%2Bahp6X87SVUFuUGGSXJMntPj9kkBkNeYQiDj%2Bj1dSB8OihnXyHtoBKCFdpzl7Z8IUP0NIZDzIOaoRgqOmbezPrJe%2FKljiL8zJnKFgVCLQFNTk6%2FwSq6M4ZoOTQybewlnOwJwTT%2FgGKaTwLnzDEQ7cJ6Mu7BiINQiEFajFUy5%2FEzKBixCBWMrtsPAO1zcBgPSBiwCgwh49pALhV68Hs1kr4zFiTHAGDAwwCIwiESAQc3ExhhgDPQXAywCLAIDMgTtL1D5eiY3xkAwGGARYBFgEWAMMAYijAEWgQg3PntWwXhWbFe2ayFhgEWARYC9QMYAYyDCGGARiHDjF5K3wmVl75oxEAwGWARYBNgLZAwwBiKMgVCLwIQJbQzOCIOTPb9gPD%2B2K9tVxUCoReD69evo7OwMnRDQ8hFuh2pY%2Fps7GmOAMVAIGAi1CNy4cSPwfYUHqpEcb%2FdaK31yxxmoNuF8GXtRxEDoReDWrVsDJgTVo2vQurEV7d3TMKlrIuonDhWjkuHtjZj%2F4ByMXz4OM7Z3YMED81HZXO1zxGKu9KmRfjyRQLsM%2FWireGYMzFylI8vFnz7bmMk0Y8wyxvKOsdCLwKlTp9Hd3Z1XIYiVlGLc8nHYenUTDn92AEe%2B7MaRLw5i1q6ZGDGrCaueWoH9H%2BzBzje2YnfPTuz%2FYC%2FmPzAX9ROcu5A5OoO21r7jPHWCXJF3rtLhjpn3jumKC24HbocAMFAQIkAdIh9CIOP8tGH8%2Bstrcf8Hu7Dg9DyMWtyClhXj0Ti9CcOmNmDRmfnYdW0nOi%2BvxdbXNiL%2Bs%2B2Yun8qalqG%2BACpsZ2j234BVE%2FPMJG29r5t8xhrX2IjbVo4rod2FJN7BNCnGHm47AMg0k0uNCeXnrbtXaDsMuZGTrZr1f2CSYSsMrjsjBYAoN3Kx7%2FxyIQx4I2BghEBasR8CAHlM3NnB45%2B2Y3l51aIfYRpg5mS8jKxpWTliCGY1DUFG19ZjwUnF2Dl4yuw8eX1GL18DMqHVvkQgeQmLp6bqLh48O2JHiTaZUPqISXje2%2Bveo3biMKfCBBxJ8um5yXLYHwaApAUEdovOBGX%2BwYrxB9PKOW3p8EdlO3BGBg4DBSUCORjw%2FnSmiosPL4Yhz85gI5t7SiO2RtnwsrxiP90B47%2F8jCOftGNY18dEn%2Bvu7QaNILwDWbFs08SrpmXiwg40rVdY4pAosOev%2B0aStunCGjzFcZG8AqhWx68MfJwHdVoIwxH%2Ba007Pbl69gejIH8YqBgRCAfAkDgIxFYdGIJjn91GLO7ZoldxVRQllWVo3XlWKx%2BdgVmdHVg6QOLseaZ1WiY2ojSilI7CfshOiJqK1xjNr6DvI3f9bBLMiRkiICDjB3p%2BBMBhyi5iQfVTZRdGQXY6muOINTwkO18foGutiH%2FzbZnDCQxUBAikC8BIGDEYiWYu3cOTnxzBCsTKzBkrHOyt2JYDRo6mkWoqL5tKBo6mlCSzf7DwmtWPG1X8rZv%2Fm6fPA6jCJggs0Y8XmKRBCN3TLYFYyD%2FGAi9CNy%2BfRt37tzJ64bzzXObseXqRhz7%2BjB2vrENS88vwuqnVmJq51Th6cdKSsT8QKy0BLEy428Cb%2BZ7EGthFV0EXEIrYlRgTdhmIQKaNy8mpvVwkHaN1VF18fL09I3yOUcY%2BQe8VXbPsnKZ2EbRwkDoRSDfAkBEXlJegpELRoonhI5%2BcQhHv%2BrGvut7MH3TNOtN4Yw7ChGnRrKOyVWddHWyFd%2FVkUEKEbBtMWlcZzwpREA3xEfdhlI%2BnZQMLRnXWASulcW4XvHy5cRwvAfJNDzKx0Tc%2F%2FAh24xtlmMMhFoErl27ltcRgErs9ERQ1dBq1LcMQ31rI4Y01aI8m5CP1XCSeNVHOBUSFdeZZK3MFdjmA2gEYBsteJGsM50k8Zt7EAtST%2BZvPCLahUSvUj5VtDQRIJtJ4TAeBzXDWlKozEdELRGx7BAtb0vFFv%2FNbR8mDIRaBJqamgZe9WMlYnJYvkMQpsYLoiyGCGhPGTFxDzwOuQ24DQLCQKhFIAiS4zRTe2EsAqntw%2Fhh%2Bww2DLAIBKSuhQoUFgEmuULFLpc7M%2ByyCLAI8DCbMcAYiDAGWAQi3PjsOWXmObHd2G6DCQMsAiwC7AUyBhgDEcYAi0CEG38weTNcF%2FbOGQOZYYBFgEWAvUDGAGMgwhhgEYhw47PnlJnnxHZjuw0mDLAIsAiwF8gYYAxEGAMsAhFu%2FMHkzXBd2DtnDGSGARYBFgH2AhkDjIEIY4BFIMKNz55TZp4T243tNpgwwCLAIsBeIGOAMRBhDLAIRLjxB5M3w3Vh75wxkBkGWARYBNgLZAwwBiKMARaBCDc%2Be06ZeU5sN7bbYMIAiwCLAHuBjAHGQIQxwCIQ4cYfTN4M14W9c8ZAZhhgEWARYC%2BQMcAYiDAGWAQi3PjsOWXmObHd2G6DCQMsAiwC7AUyBhgDEcYAi0CEG38weTNcF%2FbOGQOZYYBFgEWAvUDGAGMgwhhgEYhw47PnlJnnxHZjuw0mDLAIsAiwF8gYYAxEGAMsAhFu%2FMHkzXBd2DtnDGSGARYBFgH2AhkDjIEIY4BFIMKNz55TZp4T243tNphhzIKYAAAANElEQVQwwCLAIsBeIGOAMRBhDLAIRLjxB5M3w3Vh75wxkBkGWARYBNgLZAwwBiKMARKB%2Fx%2Bk4jkYbCK2ewAAAABJRU5ErkJggg%3D%3D%3B%22%20vertex%3D%221%22%20parent%3D%221%22%3E%3CmxGeometry%20x%3D%22-210%22%20y%3D%22547%22%20width%3D%22157.92%22%20height%3D%22153%22%20as%3D%22geometry%22%2F%3E%3C%2FmxCell%3E%3C%2Froot%3E%3C%2FmxGraphModel%3E&lt;/span&gt;&lt;br&gt;&lt;/p&gt;&lt;p&gt;5) Ejecutar la aplicación web de vistas, puede ser un IIS express desde visual studio 2019 para pruebas locales&lt;/p&gt;" style="text;html=1;whiteSpace=wrap;overflow=hidden;rounded=0;" parent="1" vertex="1">
          <mxGeometry x="-360" y="510" width="620" height="410" as="geometry" />
        </mxCell>
      </root>
    </mxGraphModel>
  </diagram>
</mxfile>
